<?xml version="1.0" encoding="utf-8"?>
<!-- Generator: Adobe Illustrator 26.0.1, SVG Export Plug-In . SVG Version: 6.00 Build 0)  -->
<svg version="1.1" id="Layer_1" xmlns="http://www.w3.org/2000/svg" xmlns:xlink="http://www.w3.org/1999/xlink" x="0px" y="0px"
	 viewBox="0 0 530 551.9" style="enable-background:new 0 0 530 551.9;" xml:space="preserve">
<style type="text/css">
	.st0{fill-rule:evenodd;clip-rule:evenodd;}
</style>
<path class="st0" d="M476.6,65.3c4.3,0.6,8.6,4.5,12.9,11.8c4.1,7.1,5.3,12.7,3.6,16.8c-1.1,3-3.8,3.4-8.1,1.4
	c-2.4-0.8-3.9-3.3-4.5-7.6c-0.8-5.4-2.9-9.2-6.4-11.5c-2.4-1.3-6.7-2.5-12.9-3.6c-7.7-0.9-17.9-1.4-30.8-1.4
	c-15.3,0-25.6-0.3-30.8-0.8c-40.3-2.4-74-2.9-101.1-1.4c-11,0.9-27.1,0.9-48.2,0c-21.6-0.7-37.6-0.8-47.9-0.3
	c-26.5,1.1-58.3,1.4-95.5,0.8c-11.6,0-28.9,1-52.1,3.1c-4.1,0.4-7,0.9-8.7,1.7c-2.6,1.3-3.8,3.9-3.6,7.8c0.4,6.7,4.8,10.1,13.4,10.1
	h17.4c7.1,0,13-0.4,17.6-1.1c11.6-2.1,21.9-2.6,31.1-1.7c9.7,1.1,25.8,1.2,48.2,0.3c20.9-0.8,37.1-0.2,48.4,1.7
	c4.8,0.7,11.2,0.7,19-0.3c9.7-1.1,16.2-1.7,19.3-1.7l226.2,11.2c-3.9,9-11.2,12.3-21.8,10.1c-9.7-1.9-22.5-3.2-38.4-3.9
	c-20.4-1.1-33.2-2-38.6-2.5c-0.8,0-20.7-1.2-59.9-3.6c-20.9-1.3-47.1-1.8-78.7-1.4c-48.5,0.4-74.7,0.6-78.4,0.6
	c-47.6-0.4-80.6-0.1-98.8,0.8c-5.2,0.4-8.8,1.6-10.6,3.6c-1.5,1.9-2.4,5.3-2.8,10.4c-0.6,6.3-0.2,15.8,1.1,28.3
	c1.5,12.3,2,21.6,1.4,28c2.6,0.2,4.8-1,6.7-3.6c2.2-2.8,4-4.3,5.3-4.5v-0.6l0.6,0.6h-0.6c1.7,3.9,1,7.4-2,10.4
	c-6.2,5.8-10.2,13-12,21.6c-1.1,5.2-1.7,13.4-1.7,24.6c0,2.8-0.5,13.1-1.4,30.8c-0.8,12.5-0.6,22.8,0.6,30.8
	c0.8,6,0.2,15.6-1.7,28.8c-1.7,12.7-1.8,22.4-0.3,29.1c2.4,14.4,3.4,26.1,3.1,35.3c-0.2,1.1-0.3,2.8-0.3,5c-0.4,1.5-1.5,2.4-3.4,2.8
	c-4.3,0.7-6.7-1.6-7.3-7c-1.3-12.3-2.2-21.7-2.8-28c-1.3-11.2-1.5-20.4-0.6-27.7c1.5-9.9,2.3-22.5,2.5-37.8
	c0-21.8,0.2-34.4,0.6-37.8l3.9-58c0.4-7.8,0.3-20.1-0.3-36.7c-0.9-16.2-1.1-28.6-0.6-37c0.6-6.7-2.2-11.2-8.4-13.4
	c-3-1.1-6.2-5-9.5-11.8c-3.2-6.7-4.4-11.3-3.6-13.7c1.5-4.3,5-6.7,10.6-7.3c4.1,0,10.4-0.7,19-2c8.4-1.5,14.9-2.2,19.6-2.2
	l145.9-0.8c4.9-0.2,7.9-0.6,9.2-1.1c2.8-1.3,4.6-4.3,5.3-9c1.1-6.3,6.9-10.5,17.4-12.6c10.6-1.9,18.7-0.4,24.1,4.5
	c1.7,1.1,2.3,2.1,2,2.8c-1.3,9,0.7,14.1,6.2,15.4c7.3-0.2,12.5-0.3,15.7-0.3l140,1.7C444,62.4,456.3,63.4,476.6,65.3L476.6,65.3z
	 M472.4,38.7c1.9,0,3.1,1.2,3.6,3.6c0.6,3.5-0.7,5.3-3.9,5.3h-17.9c-4.9-0.9-13.5-1.4-26-1.4c-12.9,0.4-22.7,0-29.4-1.1
	c-5.8-1.1-14.2-1.1-25.2,0c-3.5-0.6-5.4-1.9-5.6-3.9c-0.4-3.5,1.6-5.6,5.9-6.2c2.2-0.6,4.2-0.6,5.9,0c11.8,1.9,25.5,3.1,41.2,3.6
	h41.7L472.4,38.7z M445,139.2c0,2.1-2,3.4-5.9,3.9c-3.2,0.6-6.2,0.6-9.2,0c-33.4-4.3-83.5-8.5-150.4-12.6h-6.2
	c-5.6-0.4-8.4-2.3-8.4-5.9c0-2.8,1-4.3,3.1-4.5c0.9-0.4,2.9-0.4,5.9,0l47.6,5.3c24.1,3.2,60.1,5.6,108.1,7.3h9.5
	C443.2,133.4,445.2,135.5,445,139.2L445,139.2z M484.8,124.7c-0.4,15.3-2.1,35.2-5,59.6c-3.7,32.1-5.9,51.9-6.4,59.4
	c-1.3,19-2.1,47.4-2.5,85.1c-0.8,11.2-1.4,28-2,50.4c0,3-0.1,4.8-0.3,5.6c-0.6,1.9-2.1,2.7-4.5,2.5c-1.7-0.4-2.8-1.3-3.4-2.8
	c-0.2,0-0.5-1.7-0.8-5c-0.6-7.3-0.6-22.1,0-44.5c2.2-76.5,6.7-135.1,13.4-175.6c0.8-4.5,1.3-10.3,1.7-17.4c0-7.7,0.1-13.4,0.3-17.4
	c0-3,0.2-4.8,0.6-5.3c0.8-1.7,2.5-2.3,5.3-2C483.5,118,484.8,120.4,484.8,124.7L484.8,124.7z M324.6,40.7c3.2-3.7,6.9-5.2,11.2-4.5
	c1.9,0.4,5.2,2.1,10.1,5C339,46.5,331.9,46.3,324.6,40.7L324.6,40.7z M268.6,56.1c0.2-3.7-1.2-6.2-4.2-7.3c-1.5-0.7-4.3-1.3-8.4-1.7
	c-3-0.2-5.4,0.4-7.3,1.7c-2.4,1.3-3.6,3.5-3.4,6.4c0.4,3.4,2.1,5.1,5,5.3c3.4,0,6.1,0.1,8.1,0.3l5.9-0.3
	C266.8,60.4,268.2,58.9,268.6,56.1L268.6,56.1z M296.6,221.8c-2.2-1.1-5.8-0.5-10.6,2c-7.1,3.5-18.3,6.5-33.6,9
	c-5.8,1.7-9.9-0.3-12.3-5.9c-4.5-11.4-6.1-21.6-4.8-30.5l4.8,4.8c3,11.2,6.8,18,11.5,20.4c4.3,2.1,11.8,1.3,22.7-2.2
	c10.1-4.8,17.9-7.7,23.5-8.7c7.8-1.7,11.4,1.2,10.6,8.7l-2.2,27.2c-1.3,8.2-1.8,13.4-1.4,15.4c0.2,6.4,1.5,10.1,3.9,11.2
	c2.4,0.9,6.3-0.5,11.8-4.2c4.7-2.6,9.8-6.4,15.4-11.2c5.2-5,10.6-8.6,16.2-10.6c4.7-1.9,8-3,10.1-3.4c3.9-0.6,7.3,0.3,10.1,2.5
	c5.2,3.5,6.6,10,4.2,19.3c-4.1,15.3-9.2,31.5-15.4,48.4c-2.4,7.5-3.3,15-2.5,22.7c2.4,1.1,4.8,0.9,7-0.6c0.8-0.2,2.5-1.5,5.3-3.9
	c16.6-13.3,35.5-35.3,56.6-66.1c1.7-4.1,3.2-6.9,4.5-8.4l4.2-4.2c1.7-1.1,3.4-0.8,5.3,0.8c2.4,1.9,2.1,4.7-0.8,8.4
	c-14.9,21.5-25.9,35.9-33,43.4c-3.9,4.3-10,10.9-18.2,19.9c-7.3,7.3-14.2,13.2-20.7,17.9c-1.5,1.1-4,2.7-7.6,4.8
	c-3,1.7-5.6,1.7-7.8,0c-2.6-1.5-4.5-3.9-5.6-7.3c-0.8-3.2-0.8-6.5,0-10.1c0.7-4.7,3.7-15.2,9-31.6c2.6-8,4.7-14.1,6.2-18.2
	c2.6-7.3,4.2-13.6,4.8-19c0.4-4.8,0-7.8-1.1-9c-1.3-1.1-4.3-1-9,0.3c-5.2,2.1-13.4,7.4-24.4,16l-11.8,9.8
	c-12.5,10.3-20.7,7.7-24.6-7.8c-1.1-4.1-1.4-9.2-0.8-15.4c0.7-9.3,1.1-14.5,1.1-15.4c1.3-4.3,2-7.6,2-9.8
	C299.2,226.2,298.5,223.1,296.6,221.8L296.6,221.8z M512.8,266.1c1.5,3.6,1.9,9,1.1,16.2c-0.7,7.3-0.5,12.7,0.8,16.2
	c0.8,5.6,0.1,14.9-2,28c-2.1,11.8-2.2,21-0.6,27.7c0.4,2.1-0.2,3.8-1.7,5.3c-1.1,1.7-2.7,2.6-4.8,2.8c-2.2,0.6-3.8,0.1-4.8-1.4
	c-0.6-0.9-1.1-2.9-1.7-5.9l-0.6-5.6c1.9-11.9,3.3-25.8,4.2-41.4c0-1.9,0.4-15.6,1.1-41.2c0-2.4,0.9-3.9,2.8-4.5
	C509.9,261.7,511.8,262.9,512.8,266.1L512.8,266.1z M424.6,390.1c3.5,1.1,8.3,1.8,14.3,2c8,0.4,13.1,0.6,15.1,0.8
	c6.2-0.2,10.8-0.3,14-0.3c5.8,0,10.4,1.6,13.7,4.8c-2.1,6.5-3.4,11.5-3.9,14.8c-1.3,8.2-2.8,13-4.5,14.3c-1.7,1.3-6.8,1.7-15.4,1.1
	c-20-0.4-45.8-2-77.6-4.8c-40.7-3.7-66.4-5.9-77-6.4c-9.3-0.6-23.6-0.6-42.8-0.3c-7.8,0-11.8,3.7-11.8,11.2l-0.8,40.9
	c0,4.7,1.6,8.8,4.8,12.3c5.8,6.3,7.2,15.5,4.2,27.4c-2.4,11.6-9.1,17.4-19.9,17.4c-9,0-16-3.7-21-11.2c-2.2-3.5-2.5-8.3-0.8-14.3
	c1.3-6,4-9.9,8.1-11.8c5.8-3,9.7-7.2,11.8-12.6c1.5-3.7,2.2-9.2,2.2-16.5l0.8-28.8c-0.2-6.7-1.1-10.7-2.8-12
	c-1.9-1.9-5.9-2.4-12-1.7c-12.3,1.3-28.3,2.2-47.9,2.5c-24.6,0.2-40.5,0.5-47.6,0.8l-73.4,2.8c-6.9,0.6-12.7,0-17.4-1.7
	c-3.7-1.3-7.3-5.1-10.6-11.5c-3-6.2-3.9-11-2.8-14.6c0.8-2.4,2.6-3.9,5.6-4.5l11.8,0.8c8.4,0.4,15-0.4,19.9-2.2
	c6.3-2.4,11-7.2,14-14.3c2.4-5.2,6.1-8.3,10.9-9.2c-0.6,2.8-2.5,6.2-5.9,10.4c-3.7,4.3-5.6,8.1-5.6,11.5c9.7,3.6,19,4.8,28,3.6
	c21.1-3.5,41.1-4.5,59.9-2.8c8.4,0.6,15.5-2.9,21.3-10.4c11.8-14.8,25.1-29,40-42.8c-3,7.3-9.2,16.1-18.8,26.3
	c-11,11.6-18.3,20.4-21.8,26.3c8.2,1.1,20.9,1.4,38.1,0.8c2.4,0,4.8-1,7-3.1c1.9-2.8,3.4-4.9,4.5-6.2c14-18.5,27.4-33.9,40-46.2
	c-0.8,5.6-3.3,11-7.6,16.2c-2.2,2.6-5.5,6.4-9.8,11.2c-0.8,1.3-4.1,5.4-10.1,12.3c-4.3,5.4-7.6,10.4-9.8,14.8h40.6
	c2.1,0,3.9-0.9,5.6-2.8l4.8-5.3c2.1-1.5,6.2-6.1,12.3-13.7c5-6,10.1-10.3,15.1-12.9c-1.7,5.4-5.4,11.2-11.2,17.4
	c-6.7,7.1-10.7,11.9-12,14.6c9.7,4.1,17.9,5.5,24.6,4.2c6.9-1.5,13.5-6,19.9-13.4c6.3-7.7,11.8-12,16.2-13.2c0,2.8-1,5.4-3.1,7.8
	c-1.1,1.1-2.9,2.7-5.3,4.8c-4.1,5.4-6.4,9.9-7,13.4c7.8,0.8,13.6,1.1,17.4,1.1c6.9,0.4,12.3-0.4,16.2-2.2c4.1-1.9,8.6-5.1,13.4-9.8
	c5.8-5.4,10.3-9.6,13.4-12.6c0,4.3-2.1,8.8-6.2,13.4c-4.5,5-7.2,9.2-8.1,12.6c16.6,0,25.9-0.2,27.7-0.6c3.7-0.6,6.9-3.7,9.5-9.5
	c2.8-6,6.1-9.5,9.8-10.6c1.7,2.6,1.1,5.9-1.7,9.8C424.7,383.9,423.8,387.3,424.6,390.1L424.6,390.1z M464,403.8
	c-1.1-0.2-3.3-0.5-6.4-0.8c-14.4-2.6-33-4.1-56-4.5c-30.6-0.2-49.5-0.6-56.6-1.1c-35.1-2.8-73.8-3.2-116.2-1.1
	c-12.1,0.4-30.9,0.4-56.3,0c-24.6-0.6-43.5-0.5-56.6,0.3c-4.3,0.2-10.7,1.1-19.3,2.8c-7.6,0.9-14,0.6-19-1.1
	c-4.9-1.3-10.7-1.5-17.6-0.6c-9.3,1.5-14.9,2.2-16.8,2.2c-4.7,0.6-6.9,2.5-6.7,5.9c0.4,3.4,2.6,5.4,6.7,6.2
	c9.7,2.8,18.6,3.7,26.6,2.8c19.8-2.1,58.1-3.4,114.8-3.9c7.7,0,13.4-0.3,17.4-0.8c30.6-3,71.3-3,122.1,0
	c46.8,2.4,85.5,5.2,115.9,8.4l17.6,0.6c6.4,0,9.5-3.2,9.5-9.5C467.5,406.4,466.5,404.6,464,403.8L464,403.8z M330.2,441.1
	c0.8-0.8,1.6-1.3,2.5-1.7c3.7-1.5,6.8-2.2,9.2-2c27.2,1.1,47.8,2,61.6,2.5c3.5,0,6.2,1.6,7.8,4.8c-1.1,2.8-3.1,4.5-5.9,5
	c-1.3,0.2-3.7,0.2-7.3,0c-25.9-3.5-47.1-4.4-63.6-2.5c-3.5,0.6-5.3-0.6-5.3-3.6C329.2,443,329.4,442.2,330.2,441.1L330.2,441.1z
	 M23.3,209.2l-0.8,10.9c-0.6,1.9-0.5,5.4,0.3,10.6c0.4,4.3-1.2,6.4-4.8,6.4c-4.3,0.4-6.6-1.8-7-6.4c0.6-6,0.8-10.2,0.6-12.6
	c-0.4-0.6-0.1-3.6,0.8-9.2c0.9-5.2,3.4-7.6,7.3-7c1.9,0.4,3.1,1.3,3.6,2.8C23.3,205.1,23.3,206.6,23.3,209.2L23.3,209.2z M200,127.7
	c1.7-2.1,4.4-3.3,8.1-3.6c5.4-0.2,8.5-0.5,9.2-0.8c2.2,0,3.7,0.2,4.5,0.6c1.9,0.2,3,1.2,3.4,3.1c0.2,2.1-0.5,3.5-2,4.2
	c-0.9,0.6-2.3,1.1-4.2,1.7c-7.5,2.4-13.5,2.4-18.2,0C198.6,131.7,198.3,130,200,127.7L200,127.7z M125.5,200c2.4,1.3,2.4,3.4,0,6.4
	c-3,4.1-7.9,10.1-14.8,17.9c-20.7,24.1-36.1,43.5-46.2,58.2c2.2-7.5,5.9-15.3,10.9-23.5c2.6-3.9,7.8-10.9,15.7-21
	c0.8-1.1,5.7-6.9,14.8-17.4c6-6.7,10.4-13,13.4-18.8C121.2,199,123.3,198.3,125.5,200L125.5,200z M97.8,180.4
	c-2.6,3-6.9,7.5-12.9,13.4l-3.6-3.1l24.4-28C105.3,168.9,102.6,174.8,97.8,180.4L97.8,180.4z M137.6,250.7c0,0.2-0.9,1.7-2.8,4.5
	c-15.5,21.3-31.5,40.6-47.9,58c-0.6,0.6-2.1,0.8-4.8,0.8c1.9-4.7,4.9-9.7,9.2-15.1c7.5-8.6,11.4-13.2,11.8-13.7l32.5-40.6
	C137.6,246.7,138.3,248.8,137.6,250.7L137.6,250.7z M70.4,162.2c2.1-6,7.8-13.9,17.4-23.8C85.8,151.6,80.1,159.6,70.4,162.2z
	 M192.7,309.8c-4.1,11.2-11.9,23.6-23.5,37.2c-16.8,19.8-26.2,31.3-28.3,34.4c4.3-11,12.1-23.4,23.5-37.2
	C181.6,323.5,191,312,192.7,309.8z M106.8,345c-7.3,9-14.3,15.6-21,19.9c-0.6-2.4-0.3-4.6,0.8-6.4c0.2-0.2,1.7-1.8,4.5-4.8
	l52.6-63.3c1.9-1.9,4.4-2.7,7.6-2.5c-3.7,7.8-12.5,19.5-26.3,35C120.7,327.8,114.6,335.1,106.8,345L106.8,345z M75.1,328.8
	c-6.7,7.3-10.3,11.2-10.6,11.8c1.1-10.3,6.8-18.9,17.1-25.8C81.6,319.6,79.4,324.3,75.1,328.8L75.1,328.8z M122.2,444.7
	c-14.9,3.6-31,3.3-48.2-0.8c8-2.6,15.4-3.8,22.1-3.6C103,440.2,111.7,441.7,122.2,444.7L122.2,444.7z M165.8,440.2
	c6-3.7,12.2-5.6,18.8-5.6c4.3,0.4,9.7,1.6,16.2,3.6C192.6,443.5,181,444.1,165.8,440.2L165.8,440.2z M244.5,509.9
	c3.4-3.7,4.8-7.2,4.5-10.4c-0.2-3.4-1.5-5.5-3.9-6.4c-0.6-0.4-3-0.7-7.3-0.8c-3.9-0.4-6.9,0.8-9,3.6c-2.4,2.6-3.4,5.8-2.8,9.5
	c0.7,5.4,3.9,8.7,9.5,9.8C238.5,515.6,241.5,513.9,244.5,509.9L244.5,509.9z"/>
</svg>
