<?xml version="1.0" encoding="utf-8"?>
<!-- Generator: Adobe Illustrator 26.2.1, SVG Export Plug-In . SVG Version: 6.00 Build 0)  -->
<svg version="1.1" id="Layer_1" xmlns="http://www.w3.org/2000/svg" xmlns:xlink="http://www.w3.org/1999/xlink" x="0px" y="0px"
	 viewBox="0 0 540.2 540.2" style="enable-background:new 0 0 540.2 540.2;" xml:space="preserve">
<style type="text/css">
	.st0{fill-rule:evenodd;clip-rule:evenodd;}
</style>
<path class="st0" d="M458,45.2c-4.5,0-13-0.7-25.5-2c-10.5-0.9-18.9-1.3-25.2-1.1l-15.1,0.6c-6,0-10.9,0.5-14.8,1.4
	c-1.5,0.6-2.8,0.4-3.9-0.6c-1.1-0.9-1.7-2.2-1.7-3.9c0-2.4,1.5-3.6,4.5-3.6h33.9c7.5-0.6,23.8,0.2,49,2.2c1.9,0,3.3,0.1,4.2,0.3
	c1.5,0.6,2.2,1.7,2.2,3.4c0,2.1-0.8,3.2-2.5,3.4C462.2,45.5,460.5,45.5,458,45.2L458,45.2z M425.6,125c1.7,1.9,2.5,5.5,2.5,10.9
	l1.1,50.7c0,2.8-0.2,4.5-0.6,5c-0.4,1.9-1.5,2.9-3.4,3.1c-4.1,0.9-6.6-1.3-7.6-6.7c-0.9-3.7-1.4-6.5-1.4-8.4
	c1.9-22,2.1-39.4,0.6-52.1c-0.4-2.6,0.7-4.4,3.1-5.3C421.8,121.6,423.7,122.5,425.6,125L425.6,125z M472.9,81.8
	c-0.6,4.8-3.1,8.4-7.6,10.6h-0.6c8.4,5.6,10.9,13,7.6,22.1c-2.6,7.8-3.7,19.7-3.4,35.6c0,10.4-0.8,29.1-2.2,56
	c-1.5,23.3-1.9,41.9-1.1,55.7c0.4,9.7,0.6,24.4,0.6,44c0.4,5.8,0.7,9.6,1.1,11.5c0.9,4.1,3.2,7.6,6.7,10.6c5.8,5.2,7.5,10.4,5,15.7
	c-2.4,5-7.7,7.7-15.7,8.1c-13.6,0.8-30.1,0.6-49.3-0.3c-3.5,0-9-0.1-16.2-0.3c-6.4,0-12,0.3-17.1,0.8c24.4,48,27.3,100.3,8.7,157.1
	c-2.4-0.8-3.7-1.7-3.9-2.8v-2.8c0.8-2.1,1.2-3.6,1.4-4.8c6.4-37.9,6.4-71.5,0.3-100.8c-5.2-24.6-16.5-41.4-33.9-50.1
	c-8.4-4.3-15.8-6.1-22.1-5.3c-5.8,0.9-14.9-0.8-27.4-5.3c-11.4-3.7-27-4.6-46.8-2.5c-6.7,0.6-11,1.9-12.9,3.9
	c-5.4,6-13.3,11.2-23.8,15.7c-15.5,6.3-24.1,10-25.8,10.9c-11.4,7.1-20,15-25.8,23.8c-0.7,1.1-2.2,2.9-4.5,5.3
	c-1.1,2.1,0.2,4.1,3.9,6.2c2.2,1.1,1.4,2.6-2.5,4.5c-7.3,3.7-12.2,9.3-14.8,16.8c-1.7,5-2.6,12.7-2.8,23c11.2-7.3,22.2-16.6,33-28
	l5.9-6.2c1.5-1.7,2.7-2.8,3.6-3.4c1.5-0.9,3-0.7,4.5,0.6c1.7,1.7,2.1,3.3,1.1,4.8c-0.4,0.9-1.7,2.1-3.9,3.4l-37.8,30.8
	c-4.7,4.1-7.6,9.9-9,17.4c-0.9,7.8,0.4,14.4,3.9,19.6c0.2,0.6,2,1.8,5.3,3.6c-0.9-4.5-1.4-7.5-1.4-9c0-3,1.4-5.6,4.2-7.8
	c11.6-8.8,20.4-15.4,26.3-19.9c10.5-8,18.9-15.7,25.2-23c1.3,4.7,0.9,8.5-1.1,11.5c-0.7,1.1-2.9,3-6.4,5.6l-35,26.6
	c-7.1,5.2-11,10.4-11.8,15.4c8,4.1,15,6.1,21,5.9c7.3-0.6,13.9-4.1,19.9-10.6c2.6-3.2,7.6-8.1,14.8-14.8c6.5-6,11.4-11,14.6-15.1
	c3.6-3.9,6.4-4.9,8.4-3.1c1.5,1.5,1.8,3,0.8,4.5c-0.7,0.8-2,2-3.6,3.6c-8.8,9-21.6,20.4-38.4,34.4c9.9,2.1,17.3,3,22.1,2.8
	c7.1-0.6,13.3-3.4,18.8-8.4c4.5-4.3,10.5-9.4,17.9-15.4c11.4-8.8,17.6-13.6,18.5-14.6c2.6-2.1,6.2-2.3,10.6-0.8l-51.8,40.6
	c11.2,2.4,18.2,3.4,21,3.1c6.5-0.2,12-3.1,16.5-8.7c2.1-2.6,7.2-6.9,15.4-12.9c6.9-4.7,11.4-9.7,13.4-15.1c0.4-1.1,2.9-2.3,7.6-3.6
	c1.5-0.4,3-0.1,4.5,0.8c1.9,1.9,1.5,3.7-1.1,5.6L283,482.5c-8.8,6.7-14.2,11.7-16.2,14.8c7.1,3.6,12.8,5.2,17.1,5
	c4.5-0.4,9.3-3,14.6-7.8c5.8-4.8,10.3-8.5,13.4-10.9c5.6-4.5,9.7-8.8,12.3-12.9c1.7-2.4,3.6-2.7,5.9-0.8c2.4,1.9,2.2,4.1-0.8,6.7
	l-27.4,22.7c8,4.3,14,6.2,17.9,5.9c3.9-0.2,8.4-2.6,13.4-7.3l19-18.8c1.1,1.1,1.6,2.5,1.4,4.2c0,0.9-0.3,2.3-0.8,4.2l-18.2,16.2
	c4.8,1.9,9.1,1.9,12.9,0c0.7,2.2,2.2,3.5,4.5,3.6h5.6c8.2-0.2,14.4-0.3,18.5-0.3c2.8,0,4.4,1.3,4.8,3.9c0.7,1.9-0.2,3.6-2.8,5.3
	c-1.9,1.5-5,2.1-9.5,1.7l-109.2-10.4c-19.2-1.9-33.7-3.6-43.4-5.3c-5.8-0.9-15.2-1.3-28.3-1.1c-12.3,0-21.8-0.7-28.6-2
	c-8.2-1.7-14.5-5.7-18.8-12c-5.4-8.4-7.7-17.6-6.7-27.4c1.5-15.1,4.5-29.4,9-42.8c7.1-23,20.5-41.2,40.3-54.6
	c2.8-1.7,3.9-3.8,3.4-6.4L77,354.3c-4.9,0-7.6-0.1-8.1-0.3c-2.8-0.7-4.5-3-5-6.7c-1.1-4.9-1.7-8.4-1.7-10.6
	c-0.4-4.3,1.5-7.2,5.6-8.7c5.6-2.1,7.8-6.5,6.4-13.4c-2.2-10.3-3.8-24.7-4.8-43.4c-1.1-20.7-2.4-35.4-3.9-44
	c-1.1-7.5-0.9-16.2,0.6-26.3c1.5-11.6,2.6-20.3,3.4-26.3c2.6-24.5,2.9-54.8,0.8-91c0-1.1-0.8-3.6-2.5-7.6
	c-5.4-12.1-5.9-21.1-1.4-26.9c3.7-4.8,11.7-7.6,23.8-8.4c37.9-2.6,81.2-2.2,129.9,1.1l33.6,2.8c-0.9-8.6-0.1-14.4,2.5-17.4
	c2.4-3.4,7.6-5.4,15.7-6.2h10.1c6.7,0.2,11.1,1.4,13.2,3.6c2.6,2.2,3.9,6.7,3.9,13.4c0,3.7,0.8,6.3,2.2,7.8c1.3,1.3,3.9,2.2,7.8,2.5
	l100.8,7.6c12.1,1.1,21.1,1.9,26.9,2.2c11,0.7,20.2,0.8,27.4,0.3c7.5-0.4,10.7,3,9.8,10.1C473.6,71.5,473.3,75.9,472.9,81.8
	L472.9,81.8z M463.4,75.7c0-4.3-2.6-6.6-7.8-7l-20.2-2.2c-15.1,0-35.7-1.3-61.6-3.9c-30.2-2.8-50.8-4.4-61.6-4.8
	c-12.5-0.6-37.3-2.5-74.5-5.9c-29.9-2.6-53.2-3.7-70-3.4l-45.1,0c-16.6,0.4-29,1.5-37.2,3.4c-6.9,1.5-10,4.9-9.2,10.1
	c0.4,5.2,3.7,8.6,10.1,10.1l147.6,2.5c21.8,0.6,49.9,2.1,84.3,4.8c46.3,3.5,74.6,5.5,84.8,5.9c20.9,1.3,38.3,0.8,52.1-1.4
	c3-0.4,5.1-1.2,6.4-2.5C462.7,80.2,463.4,78.3,463.4,75.7L463.4,75.7z M445.4,95.6c-10.8-0.9-33.4-2.3-67.8-4.2
	c-28.2-1.7-50.8-3.4-67.8-5c-33.2-3.6-65.9-4.9-98-3.9c-9.7,0.6-29.4,0.1-59.1-1.4c-24.6-0.9-44.4-0.6-59.4,1.1
	c-6.3,0.7-10.1,1.6-11.2,2.5c-1.7,1.1-2.6,4.3-2.8,9.5c-0.4,3.9-0.6,15.5-0.6,34.7c6.7-4.7,11.5-8.2,14.3-10.6
	c4.7-4.3,7.7-8.9,9-13.7c0.9-4.1,3-5.4,6.2-3.9c2.4,0.9,3.5,2.2,3.1,3.9c-0.6,0.9-1.4,2.2-2.5,3.9c-4.1,7.1-9.7,13.4-16.8,19
	c-7.3,5.4-11.8,12.4-13.4,21c-0.8,4.1-0.8,12.1-0.3,24.1c2.4,0.4,4.6-0.8,6.4-3.4c2.1-2.6,7.1-7.5,15.1-14.6
	c6.5-5.8,11.1-11.1,13.7-16c0.6-1.3,1.8-2.3,3.6-3.1c1.9-0.6,3.6-0.3,5.3,0.8c1.9,1.3,2.3,2.8,1.4,4.5c-0.4,0.7-1.6,1.8-3.6,3.1
	c-18.3,15.7-31.7,27.9-40.3,36.7c-0.4,0.4-1.2,0.8-2.5,1.4c-1.1,0.7-1.7,1.6-1.7,2.5c-0.2,3.7-0.7,9.2-1.4,16.5
	c-0.8,6.9-0.8,13.2-0.3,18.8c11.2-9.9,19.4-17.2,24.6-21.8c9.5-8.2,16.7-15.9,21.6-23c3.9-5.6,7.8-7.1,11.8-4.5
	c0.2,2.2-0.4,4.2-1.7,5.9c-0.8,0.6-2,1.6-3.6,3.1c-9.3,9.9-22,21.3-38.1,34.2c-4.8,3.9-7.9,6.8-9.2,8.7c-3.2,3.7-4.5,7.6-3.9,11.5
	c0.4,4.1,0.8,10.4,1.4,19c0.4,7.8,1.5,14.2,3.4,19c7.7-9.9,18.7-22,33-36.4c18.7-18.1,30.3-30,35-35.6c-0.4,4.9-2.3,9.5-5.9,14
	c-1.5,1.9-4.8,5.2-10.1,10.1c-9.9,9.5-24,24.2-42.3,44c-2.2,2.2-3.7,3.5-4.5,3.9c-1.5,0.9-3.4,0.9-5.6,0c0.6,11.2,1.3,19.5,2.2,24.9
	l-0.8,14.3c-0.2,5.4,1.1,9.2,3.9,11.5c2.8,2.2,7.3,3.1,13.4,2.5c8.6-0.9,13.5-1.3,14.8-1.1c6.7,0.6,13-2.2,18.8-8.4
	c9.7-10.1,24.6-24.9,44.8-44.5c1.9-2.2,3.6-3.9,5-5c2.1-1.9,4.5-2.7,7.3-2.5c-2.6,4.7-6.8,10-12.6,16c-7.1,7.1-11.6,11.9-13.4,14.6
	c-1.7,2.1-6.3,6.4-14,13.2c-6.2,5.2-10.4,10.3-12.6,15.1c3,1.5,6.7,1.8,11.2,0.8c5.4-1.3,8.9-1.8,10.4-1.4
	c5.8,0.6,10.9-0.6,15.4-3.6c3.4-2.4,6.9-6.4,10.6-11.8c5-8,8-14.2,9-18.5c0.9-4.7,4-10.6,9.2-17.6c4.7-6.4,7.2-10.6,7.6-12.9
	c0-2.1-2.1-6.3-6.2-12.9c-5.6-10.1-9.3-18.1-11.2-24.1c-2.4-9.3-2.2-18.4,0.6-27.2c0.7-3.2,1.5-5.5,2.2-7c0.9-2.4,2.7-3.8,5.3-4.2
	c3.2-0.8,5.6,0.1,7.3,2.5c0.6,0.4,1.7,2.8,3.4,7.3c4.8,13.1,14.3,18.3,28.3,15.7c1.1-0.2,7-2,17.6-5.3c10.8-4.5,19.1-7.7,24.9-9.5
	c9.7-3.2,18.7-3.9,26.9-2.2c15.1,3.4,27.5,11.4,37.2,24.1c9.9,13.2,14,27.5,12.3,42.8c-0.7,6.5-2.1,14.1-4.2,22.7
	c-1.3,5-3.4,12.6-6.2,22.7c1.5-0.9,4.9-4.1,10.4-9.5l18.2-20.2c2.1-2.6,3.7-2.8,5-0.6c1.5,1.3,1.4,2.8-0.3,4.5l-5.6,6.2
	c-3.4,3.7-8.4,9.1-15.1,16c-6,6.4-10.6,12.1-13.7,17.4c14.7,6.5,26.7,3.6,35.8-8.7c0.8-0.9,3.7-4,9-9.2c3.5-3.6,5.9-6.9,7-10.1
	c0.6-1.3,1.3-2.2,2.2-2.5c1.1-0.6,2.2-0.5,3.4,0.3c3.2,1.5,3.4,3.8,0.6,7l-12.6,13.4c-1.1,1.3-2.9,3-5.3,5c-2.1,2.2-3,4.5-2.8,6.7
	c12.1,4.5,22.8,3.8,31.9-2c8-5.2,13.9-13.3,17.6-24.1c6.2,2.8,6.8,7.3,2,13.4c-1.5,1.9-4,4.3-7.6,7.3c-3,3.2-4.9,6.2-5.9,9.2
	c4.3,1.7,9,2.6,14,2.8c6-0.2,10.4-0.3,13.4-0.3c5.6,0,8.2-2.8,7.8-8.4c0.9-13.8,1.1-24,0.6-30.5c-1.7-12.5-2.1-28.3-1.1-47.3l2-47.3
	c0.4-8,1.5-24.6,3.4-49.6c1.7-20.4,2.2-36.8,1.7-49.3c-1.9,0.2-4.9,0.8-9.2,1.7C451.3,95.3,448.1,95.8,445.4,95.6L445.4,95.6z
	 M342.4,32.6c2.8,0,4.7,0.1,5.6,0.3c1.9,0.7,2.9,2.2,3.1,4.5c0.2,2.4-0.4,3.9-1.7,4.5c-0.7,0-2.4-0.2-5-0.6c-3.6,0-5.8-0.1-6.7-0.3
	c-2.4-0.8-3.6-2.4-3.6-5c0-1.9,1-2.9,3.1-3.1C339.3,32.8,341.1,32.8,342.4,32.6L342.4,32.6z M281.6,29.2c-1.3,0-5.2,0.7-11.8,2
	c-4.7,0.4-6.9,2.2-6.7,5.6c0.9,5.2,3.1,8.2,6.4,9l11.8,0.3c5.4,0,8.1-2.1,8.1-6.2C289.5,32.8,286.9,29.2,281.6,29.2L281.6,29.2z
	 M273.2,206.4c-25.9,15.7-48.9,15.7-68.9,0c-0.2,9,0.7,16.1,2.8,21.3c2.4,5.4,6.7,11,12.9,16.8c4.5,3.9,6.8,7,7,9.2
	c0.4,1.9-1.5,5.1-5.6,9.8l-10.9,13.2c-5.2,7.5-7.6,15.4-7,23.8c0.6,8,3.9,15.6,10.1,22.7c2.4,2.1,4.3,3.6,5.6,4.8
	c2.2,2.2,3.6,4.9,3.9,8.1c-14.4-5.4-25.8-8.1-34.2-8.1c-12.5,0-23.6,4.8-33.3,14.6c1.1-4.7,1.4-7.8,0.8-9.2c-0.6-2.1-2.6-3-6.2-2.8
	c-14.7,1.3-36.6,2.6-65.5,3.9c-3.4,0-5.4,0.1-6.2,0.3c-2.1,0.7-3.1,2.3-3.1,4.8c-0.4,2.4,0.5,3.9,2.5,4.5c0.2,0,2.2,0.4,5.9,1.1
	l3.1,0.3c8.8,0,27.2,0.8,55.4,2.2c23,0.9,41.4,1.2,55.2,0.8c5.8-0.4,11.6-2,17.4-4.8c9.9-5.6,17.5-9.7,22.7-12.3
	c9-4.5,17.4-6.9,25.2-7.3c14.4-0.6,28.3,0.9,41.7,4.5c6.5,1.9,10.9,2.8,13.2,2.8c4.8,0.2,9-1.4,12.3-4.8c0.4-0.2,0.7,0.1,0.8,0.8
	c0.5,0.4,0.8,0.9,0.8,1.7v-4.5c-5-1.7-7.3-3.8-6.7-6.4c0.2-0.9,1.9-3.6,5-7.8c10.5-14,16.8-31.8,19-53.5c0.9-9.7-0.6-18.7-4.5-26.9
	c-3.7-8.4-9.6-15-17.6-19.9C308.3,197.6,290.4,196.4,273.2,206.4L273.2,206.4z M430.9,245.9c-5.2,0-7.8-3.7-7.8-11.2
	c0-3.2,1.3-5.1,3.9-5.9c0.7,0,3.2,0.1,7.3,0.3l3.4,1.1l-1.7,5c0,0.2-0.3,2.4-0.8,6.7C434.9,244.6,433.5,245.9,430.9,245.9
	L430.9,245.9z M492.5,229.4c0.9-0.9,2.2-1.2,3.9-0.8c2.6,0.4,3.9,2,3.9,4.8c0,10.3-0.1,16.4-0.3,18.5c-0.9,14.9-0.5,27.8,1.4,38.6
	c0,1.3,0.2,3.1,0.6,5.3c0,2.2-1.1,3.6-3.4,4.2c-2.2,0.9-4.8,0.3-7.6-2c-2.6-2.6-3.6-5.2-3.1-7.8c0.6-3.4,0.8-7.6,0.8-12.9l2.2-44.2
	C491.1,231.7,491.6,230.5,492.5,229.4L492.5,229.4z M455,334.1c-13.8-0.6-34.2-2.2-61-5c-27.6-2.2-48.3-2.2-62.2,0
	c6.7,1.7,11.8,3,15.4,3.9c6,1.9,10.8,4.1,14.6,6.7c1.7,1.5,4.3,2.2,7.8,2.2l81.5,2.5c3,0,5.2-0.3,6.7-0.8c3.7-1.1,5.5-2.8,5.3-5
	c-0.2-1.9-1.7-3.3-4.5-4.2L455,334.1z M414.9,381.2l1.4-3.1c1.5-1.7,2.9-1.8,4.2-0.3l9.5,11.5c6,8.6,10.9,18.8,14.8,30.5
	c1.7,4.3,0.7,7-3.1,8.1c-1.9,0.6-3.6,0.5-5.3-0.3c-1.7-0.7-2.6-2-2.8-3.6c-0.9-11.6-7.1-25.2-18.5-40.9L414.9,381.2z M370.1,488.4
	c0.8,1.9,0.6,3.4-0.6,4.5c-0.8,0.9-2.1,2-3.9,3.1c-3.7,4.3-9.2,6.2-16.5,5.9c0.4-0.7,2.2-2.3,5.6-4.8c2.6-1.7,4-3.6,4.2-5.9
	c0.9-2.6,1.8-4.3,2.5-5c1.3-1.5,3.2-1.9,5.6-1.1C368.7,485.6,369.8,486.7,370.1,488.4L370.1,488.4z M438.7,461
	c3,0.6,4.9,2.3,5.6,5.3c0.2,1.7,0.3,4.4,0.3,8.1c0.6,4.7-1.4,6.8-5.9,6.4c-3.4-0.2-5.4-1.4-6.2-3.6c-0.2-2.8-0.3-4.8-0.3-5.9
	c0.4-3.6,0.8-6.1,1.4-7.6C434.8,461.7,436.5,460.8,438.7,461L438.7,461z M42.5,233.3c2.1-1.1,3.8-0.3,5.3,2.5
	c3.7,9,5.8,14.2,6.2,15.7c0,0.4,1.4,15.5,4.2,45.4c0,4.7-1.6,7-4.8,7s-5.2-2.1-6.2-6.2c-0.4-1.1-1.1-11-2.2-29.7
	c-0.9-11.8-2.6-21.2-5-28.3C40,236.2,40.8,234.1,42.5,233.3L42.5,233.3z M169.4,19.1c-0.8,3.2-2.6,4.8-5.6,4.8l-15.4,0.6
	c-7.1,0.2-17.6,0.3-31.6,0.3c-12.3,0.4-22.8,2.1-31.4,5.3c-3.7,1.1-6,0.2-6.7-2.8c-0.8-3.4,0.8-5.3,4.8-5.9
	c6.7-0.4,11.8-0.9,15.1-1.7c6.5-1.1,17.1-1.8,31.6-2c13.8-0.6,24.4-1.6,31.6-3.1C166.7,13.3,169.2,14.8,169.4,19.1L169.4,19.1z
	 M161.8,237c-5.8,10.8-17.6,24.7-35.6,41.7c-17.7,17.2-29.8,31.4-36.1,42.6c-2.1-4.1-1.5-8.3,1.7-12.6
	c10.6-12.9,16.1-19.4,16.2-19.6c5.2-5.6,14.2-14.2,26.9-25.8C147.1,252.1,156,243.3,161.8,237L161.8,237z M194.3,312.6
	c0-0.6-0.3-1-0.8-1.4c-0.4-0.8-0.8-1-1.1-0.8c-2.1,0.2-3.5,1.4-4.5,3.6c-0.6,0.8-1.5,3.2-2.8,7.3c3.5-1.3,5.9-2.3,7-3.1
	C193.9,317,194.7,315.2,194.3,312.6L194.3,312.6z M191.8,385.1c-4.1,3.2-10.6,6.8-19.6,10.9c6.9-6.5,11.8-10.8,14.6-12.9
	c5.2-4.3,10.3-7.4,15.1-9.2C199,378.6,195.7,382.3,191.8,385.1L191.8,385.1z M124,386.2l-10.9,13.2c-9.5,11.4-14.1,24.3-13.7,38.6
	c0,2.8-0.3,7.3-0.8,13.4c-0.6,3.7-2.3,5.5-5.3,5.3c-2.8,0-4.5-2.1-5-6.2c-0.9-13.8,0.4-25.4,3.9-34.7c4.5-11.2,13-23.6,25.5-37.2
	c5.8-5.6,12.7-7.2,20.7-4.8C133.2,377.1,128.5,381.2,124,386.2L124,386.2z"/>
</svg>
