<?xml version="1.0" encoding="utf-8"?>
<!-- Generator: Adobe Illustrator 26.0.1, SVG Export Plug-In . SVG Version: 6.00 Build 0)  -->
<svg version="1.1" id="Layer_1" xmlns="http://www.w3.org/2000/svg" xmlns:xlink="http://www.w3.org/1999/xlink" x="0px" y="0px"
	 viewBox="0 0 565 566.7" style="enable-background:new 0 0 565 566.7;" xml:space="preserve">
<style type="text/css">
	.st0{fill-rule:evenodd;clip-rule:evenodd;}
</style>
<path class="st0" d="M426.2,108.3c13.3,3.2,21.2,7.1,23.8,11.8c2.4,4.7,1.8,13.6-2,26.9c-6.2,22.4-10.2,39.8-12,52.1
	c-6.9,38.8-17,80.6-30.2,125.4c-5.8,19.2-18.4,26.2-37.8,21l-23.2-6.4c-3.5-1.1-6.1,0.4-7.6,4.5c-0.2,0.6-1.6,3-4.2,7.3
	c-1.7,2.6-2.3,5.3-2,8.1c0,0.9,0.8,1.6,2.5,2c3.4,2.2,7.4,3,12,2.2c4.3-0.7,8-2.6,11.2-5.6c1.9-2.8,3.5-4.8,4.8-5.9
	c1.9-1.9,4.2-2.7,7-2.5c-0.2,2.4-1.6,5.2-4.2,8.4c-2.6,2.8-3.8,5.5-3.6,8.1c6.7,2.2,12.2,2.9,16.5,2c5.4-1.3,10-4.9,13.7-10.6
	c3-4.1,7.1-8.9,12.3-14.3c8.6-9,13.2-13.8,13.7-14.6c1.3,2.8,1.5,5.2,0.6,7.3c0,0.2-1.1,1.5-3.4,3.9l-18.8,20.2
	c-1.9,2.2-3,3.7-3.4,4.5c-0.9,1.7-0.7,3.3,0.6,4.8c1.3,1.3,3.1,2,5.3,2c2.2-0.2,4.2-1,5.9-2.5c6-5.8,10.5-10.9,13.7-15.4
	c0.9-3,1.8-5,2.5-5.9c1.1-1.7,3.2-0.8,6.2,2.5c1.1,1.7,2.5,0.8,4.2-2.5c5.8-16.4,10.2-28.7,13.2-37c4.7-14.2,8-26.6,10.1-37.2
	c1.3-9.1,2.3-16,3.1-20.4c1.5-8,3.1-14.8,4.8-20.4c10.5-35.1,17.2-74,20.2-116.8c1.1-14.2-4.7-24.4-17.4-30.5
	c-21.1-11.2-40.7-17.2-58.8-17.9c-7.5-0.2-18.6-0.3-33.3-0.3c-12.7-0.9-23.4-3.8-32.2-8.7c-1.3-0.7-3-0.8-5-0.3
	c-11.8,3.7-20.5,7.6-26.3,11.8c-8.4,5.8-14,13.6-16.8,23.5c-11,36-20.4,72.2-28.3,108.6c-1.5,6.7-1.8,10.8-0.8,12.3
	c1.3,1.3,5.5,2.5,12.6,3.6c6.2,0.9,10.5,2.2,13.2,3.9c1.9,1.1,3.5,1.5,5,1.1c1.5-0.7,2.4-2.1,2.8-4.2c0.7-6.7,3.2-15.9,7.3-27.4
	c4.3-12.5,7-21.6,8.1-27.2c1.3-8.4,4.3-18,9-28.8c5.4-11.9,9.5-21,12.3-27.2c3-7.5,8.6-11.6,16.8-12.3c9-0.9,15.9-0.7,20.7,0.8
	c6.9,1.9,16.1,4,27.7,6.4C412.4,105.4,421.7,107.4,426.2,108.3L426.2,108.3z M440.5,123.4c-1.1-2.2-5.4-4.3-12.9-6.2
	c-7.5-1.9-17-4-28.6-6.4c-6.3-1.3-15.9-3.1-28.6-5.3l-13.7-2c-6.7-1.1-11.7,1.2-14.8,7c-10.1,17.4-16.7,31.9-19.9,43.7l-17.1,65
	c-0.7,3.7-0.9,6.6-0.6,8.7c0.2,3,1.5,5.8,3.9,8.4c10.3,12.7,17.1,21.5,20.4,26.3c7.5,10.4,13.1,20.3,16.8,29.7
	c2.8,8,4.4,12.2,4.8,12.6c2.4,4.7,5.5,8.2,9.2,10.6c1.5,0.7,2.2,1.8,2.2,3.1c0,1.5-0.7,2.9-2.2,4.2c-2.6,1.9-5.1,1.9-7.6,0
	c-5.2-5.2-9.3-12.1-12.3-20.7c-3.4-12.1-9.5-24.1-18.5-35.8c-5.2-6.9-14.2-17-26.9-30.2c-10.5-10.5-23.2-13.3-38.4-8.4
	c-13.8,4.3-29.1,13.3-45.9,27.2c-29.5,24.1-60.4,50.1-92.7,78.1c-24.8,22-43.2,42.7-55.2,61.9c-4.7,7.1-7,12.8-7,17.1
	c0.4,4.5,3,10.1,7.8,16.8c1.9-2.2,4-6.9,6.4-14c1.9-6.5,4.9-11.4,9-14.6c0.2,5-0.7,10.2-2.5,15.4c-1.1,3.2-3.1,7.7-5.9,13.4
	c-3.4,9-1.7,16.2,5,21.8c1.3-1.5,3.9-5.8,7.8-12.9c2.6-5.2,5.8-9.1,9.5-11.5c-0.7,4.3-2.1,8.9-3.9,13.7c-1.1,3-3,7-5.6,12
	c-0.6,1.1-1.5,3-2.8,5.6c-0.6,2.2-0.2,4.1,1.1,5.6c3,4.3,5.2,7.6,6.7,9.8c2.8,3.7,5.8,6.2,9,7.6c1.7-2.1,3.9-6.2,6.7-12.3
	c2.2-5.6,4.9-9.4,8.1-11.5c2.1,3,2.5,6.2,1.4,9.5c-0.7,2.1-2.2,4.8-4.5,8.1c-3.5,7.6-5.2,12.2-5,13.7c0.6,1.7,4.5,5.5,11.8,11.5
	c1.7,1.5,3.9,3,6.7,4.5c2.2-1.3,3.8-3.4,4.8-6.4c1.1-4.1,2-6.5,2.5-7.3c4.7-5.8,4.3-12.3-1.1-19.6c-13.3-17.9-22-33.3-26.3-46.2
	c-3.5-12.3-2.8-21.7,2.2-28.3c13.6-16.6,20.6-25,21-25.2c7.7-7.8,17.8-17.2,30.5-28c14-11.8,24.5-20.6,31.6-26.6
	c25.4-22,46.7-38,63.8-47.9c19.8-11.4,35.8-8.4,48.2,9c6.7,8.8,11.8,15.4,15.1,19.9c6.2,8,10.8,15,14,21c2.6,5.4,5.4,8.1,8.4,8.1
	c4.1,0.2,10.3,1.5,18.5,3.9c7.8,2.4,14,3.7,18.5,3.9c12.1,0.9,20.1-4.1,23.8-15.1c10.3-31.9,18.4-62.5,24.4-91.8
	c7.5-40,13.3-70,17.4-90.2C440.9,129.8,441.3,125.1,440.5,123.4L440.5,123.4z M491.2,112.2c-4.3,44.4-12.5,89-24.6,133.8
	c-1.7,6.5-4.3,18.9-7.8,37c-3.2,15.5-6.2,27.7-9,36.7c-6.5,19.4-12.2,33.3-17.1,41.7c-8,14.6-17.3,20.7-27.7,18.5
	c-3.9,0-10.5-0.7-19.9-2c-7.8-0.8-14-0.9-18.5-0.6c-3.9,0.2-7.7,2-11.2,5.3c-10.6,10.6-24.5,22.6-41.7,35.8
	c-17,13.6-42.8,33.7-77.6,60.2c-7.1,5.4-17.3,13.5-30.5,24.4c-11.9,9.1-22.9,16.1-32.8,21c-9,4.3-18.8,5.6-29.4,3.9
	c-11-1.5-20.3-5.6-28-12.3c-22.8-20-39.1-39-49-57.1c-0.9-1.9-2.7-3.2-5.3-3.9c-1.5-0.2-2.7-0.5-3.6-0.8c0-4.8-2.4-12.9-7.3-24.1
	c-4.1-10.1-5.3-18.4-3.6-24.9c2.2-7.1,7.9-16.5,17.1-28.3c12.9-16.4,28.5-32.5,46.8-48.2c45-38.3,78.7-67.2,101.1-86.8
	c6.7-5.8,14.6-10.6,23.5-14.3c5.8-2.8,10.3-6.7,13.4-11.8c2.4-3.7,4.6-9.2,6.4-16.5c2.4-9.9,7.1-27.3,14-52.4
	c6.3-22.2,10.9-39.8,13.7-52.6c3.2-12.9,9.7-23,19.6-30.2c6.9-5.2,17.5-10.1,31.9-14.6c2.6-0.4,4.3-0.5,5-0.3
	c8.6,3.9,18.4,6.4,29.4,7.6c6.9,0.7,17.3,1.1,31.1,1.1c27.1,0,52.6,7.6,76.7,22.7C487.7,87.6,492.7,98.2,491.2,112.2L491.2,112.2z
	 M327.1,28c-2.2,3.2-4.6,5.3-7,6.4c-0.9,0.6-3.1,1.1-6.4,1.7c-14.4,2.6-24.8,7.4-31.4,14.3c-6.3,6.7-10.4,17.4-12,31.9l-0.3,5.3
	c0,3.2-1.4,4.5-4.2,3.9c-2.2,0-3.8-1.3-4.8-3.9c-1.3-3.2-1.2-7.1,0.3-11.8c5-17.2,10.8-28.6,17.4-34.4c6.7-6.5,17.9-10.6,33.6-12
	L327.1,28z M277.8,273.8c-2.8-2.6-7.6-3-14.3-1.1c-6.5,1.7-10.2,4.4-10.9,8.1c-2.1,9.9-3.3,17.5-3.6,23c-0.2,8.8,1.3,17.1,4.5,24.9
	c3.7-6.2,5.8-9.5,6.2-10.1c1.7-3.4,2.3-6.4,2-9.2c-0.4-4.7,1.2-7,4.8-7c4.7-0.2,7.4-0.7,8.1-1.4l0.8-1.1c3.7-9.3,5.3-16.5,4.8-21.6
	C280.1,276,279.3,274.5,277.8,273.8L277.8,273.8z M485.9,269.6c1.1,0,2.1,0.4,3.1,1.1c3,2.4,3.5,5.5,1.4,9.2
	c-0.9,2.2-2.1,5.4-3.6,9.5c-1.7,3.4-3.6,5.9-5.9,7.6c-3.7-0.9-5.3-2.5-4.8-4.8l7.3-20.7C483.7,270.4,484.6,269.8,485.9,269.6
	L485.9,269.6z M498.5,229l1.4-6.7c5.2-16.8,9.7-38.6,13.4-65.5c0-1.9,0.1-3.1,0.3-3.6c0.9-2.4,1.7-3.9,2.2-4.5
	c0.9-1.7,2.3-2.1,4.2-1.4c2.2,0.8,3.1,3.2,2.5,7.3c-4.1,24.5-6.7,39.8-7.8,45.9l-3.9,15.1c-1.5,6.2-2.3,11.3-2.5,15.4
	c0,1.9-0.6,3.4-1.7,4.5c-1.1,1.5-2.6,2.2-4.5,2c-2.1-0.2-3.3-1.3-3.6-3.4L498.5,229z M418.9,143c-9.1,3.4-23.2,0.9-42.3-7.3
	C392,132.4,406.1,134.8,418.9,143z M437.4,383.3c15.3,3,26.9,7.1,34.7,12.3c-5.4,2-11.8,2.2-19,0.6c-3.7-0.8-9.6-2.3-17.6-4.8
	c-2.8-0.8-3.5-2.5-2.2-5.3C433.8,384.2,435.2,383.3,437.4,383.3L437.4,383.3z M290.1,312.4c4.5,5.8,13.6,8,27.4,6.7
	c-2.8-6.2-6.8-12.5-12-19c-1.7-2.2-6.9-8.2-15.7-17.9C285.6,296.6,285.7,306.6,290.1,312.4L290.1,312.4z M279.5,316.6l-8.1-8.4
	c-6,12-9.7,19.7-11.2,23.2c-1.9,3.5-1.1,6.5,2.2,9c3.5,2.4,6.5,2.1,9-1.1l8.7-10.9c1.7-2.4,2.7-4.5,3.1-6.2
	C283.1,320.4,281.9,318.5,279.5,316.6L279.5,316.6z M277.8,344.4c7.8,3.5,12.7,5.2,14.6,5c1.9-0.4,4.5-3.4,7.8-9
	c2.2-3.4,3.4-5.3,3.4-5.9c0.7-2.4-0.1-4.4-2.5-5.9c-6.9-3.5-11.9-3-14.8,1.7c-0.9,1.3-2.5,3.4-4.8,6.2
	C279.6,339.1,278.4,341.7,277.8,344.4L277.8,344.4z M307.5,340.2c-4.1,5.2-5.9,8.7-5.3,10.4c0.9,2.8,3.1,4.6,6.4,5.3
	c4.7,1.1,7.4,1.9,8.1,2.2c1.9-0.2,4.8-2.4,8.7-6.7c3.7-4.7,5.2-7.8,4.5-9.5c-1.7-4.7-6.1-7.6-13.2-9
	C315.1,332.5,312,334.9,307.5,340.2L307.5,340.2z M301.3,375.4l-40.6,31.9c-6.9,5.2-22.8,18.1-47.6,38.6
	c-19.2,15.9-35.2,28.4-47.9,37.5c2.8,0.2,4.6,0.7,5.3,1.4c1.5,1.3,1.6,3.8,0.3,7.6c-0.4,1.3-2.6,5.3-6.7,12c-3,4.9-4.6,9.3-4.8,13.4
	c7.5,0,13.5-3.9,18.2-11.8c2.1-3.9,8-13.7,17.9-29.4c0.9-1.7,1.8-2.9,2.5-3.6c1.3-1.3,3.2-1.5,5.6-0.6c-1.1,3.7-3.8,9-8.1,16
	c-4.3,7.5-7.3,13.7-9,18.8c10.3-7.8,17.2-13.4,20.7-16.8c5.6-6.3,9.5-13.3,11.8-20.7c2.2-8,8.5-16.1,18.8-24.1
	c-0.4,3.7-2.4,9-6.2,15.7c-3.7,6.9-6,12.5-6.7,16.8c28.4-21.5,49.6-37.8,63.6-49c24.3-19.2,44.1-37.2,59.6-54l-22.4-5.6
	C317.3,367.1,309.2,369.1,301.3,375.4L301.3,375.4z M295.2,362l-24.4-8.1c-12.5-3.9-21-9.2-25.5-16c-4.1-6.5-5.5-16.5-4.2-30
	c0.7-4.1,1.1-7.3,1.1-9.5c0.2-3.5-0.2-6.7-1.1-9.5c-3.4-0.2-6.6,0.7-9.8,2.5c-1.5,0.8-4.1,2.8-7.8,6.2
	c-33.4,27.6-58.1,48.4-74.2,62.4c-14.7,12.1-25.5,23.4-32.2,33.9c-6.7,10.1-8,20.4-3.9,31.1c4.5,12.3,11,23.8,19.6,34.4
	c8.4,11.2,14.7,17.2,19,17.9c4.1,0.6,11.9-3.4,23.2-11.8c11.2-8.6,29.7-23.3,55.4-44.2c23.7-19,42.4-33.5,56-43.4
	c6.2-4.3,9.7-8.6,10.6-12.9C296.6,364.3,295.9,363.3,295.2,362L295.2,362z M385.9,483.5c0.6,2.6,0.7,4.3,0.6,5
	c-0.4,1.5-1.6,2.3-3.6,2.5c-2.2-0.2-4.1-2.1-5.6-5.6l-14-34.7c-2.4-5.6-0.8-9.2,4.8-10.6c1.9-0.4,3.6-0.1,5.3,0.8
	c1.7,0.9,2.4,2.2,2.2,3.9c-0.9,6,0,12.7,2.8,20.2C380,469.1,382.5,475.3,385.9,483.5L385.9,483.5z M316.2,467.3
	c2.1-9.3,3.2-14.7,3.4-16c0.9-3.5,3-4.9,6.2-4.2c1.7,0.4,2.7,2.5,3.1,6.4c-1.3,3.4-2.4,8.3-3.4,14.8c-1.3,7.6-2.4,13-3.4,16
	c-0.7,3.2-2.8,4.4-6.2,3.6c-3.2-1.1-4.4-2.8-3.6-5C313.8,478.8,315.1,473.6,316.2,467.3L316.2,467.3z M436.3,446.3
	c-0.2,2.6-2.1,3.9-5.9,3.9c-0.4-0.2-1.7-0.7-3.9-1.4c-8.2-7.7-16.3-14-24.4-19c-1.1-0.6-2-1.4-2.5-2.5c-0.4-1.3-0.2-2.4,0.6-3.4
	c1.9-2.6,4.4-3.1,7.6-1.4c1.5,0.7,5.7,4.1,12.6,10.1c5,4.3,9.9,6.8,14.6,7.6C437,440.7,437.4,442.7,436.3,446.3L436.3,446.3z
	 M251.2,125.7c-3.4-0.7-5-2.7-5-5.9c0-4.3,2.1-6.4,6.2-6.2c2.8,0.2,4,2.2,3.6,6.2C256,123.5,254.4,125.5,251.2,125.7z M158.3,240.2
	c0,3.4-1.3,4.8-3.9,4.5c-6.7-0.7-17.5-2.3-32.2-4.8c-0.2,0-0.4-0.4-0.6-1.1c-0.4-0.8-0.4-1.3,0-1.7c0-1.9,0.6-2.8,1.7-2.8l12.3-0.8
	c8.6,1.1,15.1,2.1,19.6,3.1C156.5,236.6,157.5,237.8,158.3,240.2L158.3,240.2z M224.1,176.9c0,2.6,0.3,6.6,0.8,12
	c0,0.7,0.7,3.3,2,7.6c1.1,3.2,0.3,4.9-2.5,5.3c-3.5,0.9-5.9-0.4-7-3.9c-0.7-4.3-1.4-7.5-2-9.5c-0.7-1.9-0.9-4.2-0.6-7
	c0.2-2.8,0.3-4.7,0.3-5.6l-0.8-9.2c-0.4-3.2-0.6-5.6-0.6-7.3c0-2.6,1.3-4.1,3.9-4.5c3.4-0.2,5.1,1.2,5.3,4.2
	c0.4,1.7,0.7,4.2,0.8,7.6C224.5,168.4,224.6,171.9,224.1,176.9L224.1,176.9z M170.6,187.6c-0.7-2.2-0.5-3.7,0.8-4.5
	c2.8-1.9,4.9-2,6.2-0.3c9.1,11.6,14.4,24,15.7,37.2c0.6,1.9-0.3,3.1-2.5,3.6c-2.1,0.4-3.5-0.4-4.2-2.2c-3.2-8.2-5.5-14.3-7-18.2
	C176.9,196.3,173.9,191.1,170.6,187.6L170.6,187.6z M243.9,394.8c-9.5,9.1-26.7,23.4-51.5,42.8c-8.6,6.3-13.9,10.7-16,13.2
	c-1.3,1.7-2.8,2.5-4.5,2.5c-1.7,0.2-3.1-0.6-4.2-2.2c-1.3-1.5-1.3-2.7,0-3.6c1.5-1.1,2.5-2.1,3.1-2.8c23-17.2,37.1-27.8,42.3-31.9
	c9.1-8.2,16.1-14.2,20.7-17.9C237,392,240.4,392,243.9,394.8L243.9,394.8z M63.3,341.8c-2.4,2.4-6.2,5.7-11.2,9.8
	c-4.1,4.1-7.4,7.8-9.8,10.9c-6,7.6-9,16.8-9,27.4c0,0.9,0.4,2.5,1.1,4.8c0,1.7-1.4,2.6-4.2,2.8c-4.1,0-6.3-2.2-6.7-6.4
	c-1.9-10.3,1.1-20.4,9-30.5c5-6.7,11.9-13.3,20.7-19.6c4.5-3.6,12.4-8.8,23.8-15.7c-0.2,3.7-2.1,7.1-5.6,10.1
	C69.8,337.1,67.1,339.2,63.3,341.8L63.3,341.8z M135.3,495.8l-3.4,7.8c-2.4,5.2-1.2,8.5,3.6,9.8c3.5,1.7,6.2,2.9,7.8,3.6
	c3.2,1.3,5.6,0.6,7.3-2.2c6-9.1,9.2-14,9.8-14.6c3.2-5.6,4.4-11.1,3.6-16.5c-1.9,0.7-4.3,2-7.3,3.6c-3.4,1.7-6,2-7.8,0.8
	c-4.7-2.6-7.9-2.7-9.8-0.3C137.9,489.1,136.6,491.7,135.3,495.8L135.3,495.8z M270.3,488.6c-0.9,3.7-3,6.8-6.2,9.2
	c-1.7,1.3-4.2,3.2-7.6,5.6c-1.7,1.5-7.1,5.7-16.2,12.6c-6.5,5-11.5,9.6-14.8,13.7c-2.6,2.8-5.2,3.1-7.8,0.8c-1.5-1.1-2-2.4-1.4-3.9
	c0.2-1.5,1-2.6,2.5-3.4c11.9-7.8,26.8-19.1,44.5-33.9L270.3,488.6z"/>
</svg>
