<?xml version="1.0" encoding="utf-8"?>
<!-- Generator: Adobe Illustrator 26.0.1, SVG Export Plug-In . SVG Version: 6.00 Build 0)  -->
<svg version="1.1" id="Layer_1" xmlns="http://www.w3.org/2000/svg" xmlns:xlink="http://www.w3.org/1999/xlink" x="0px" y="0px"
	 viewBox="0 0 560 559.9" style="enable-background:new 0 0 560 559.9;" xml:space="preserve">
<style type="text/css">
	.st0{fill-rule:evenodd;clip-rule:evenodd;}
</style>
<path class="st0" d="M386.4,69.8c-4.3,0-6.3-2.1-5.9-6.2c0.6-3.9,2.8-5.7,6.7-5.3c3.5,0.6,5.6,2.6,6.2,6.2
	C392.8,67.5,390.5,69.2,386.4,69.8L386.4,69.8z M409.6,93c10.5-1.1,21.6,0.3,33.3,4.2c6.3,1.9,16.7,6.2,31.1,13.2
	c13.3,6.2,20.5,17.6,21.8,34.2c1.5,14.6,2,32.5,1.4,53.8c-0.6,23.5-0.8,41.2-0.8,53.2c0,23.5-0.2,41.1-0.6,52.6
	c-0.2,20.5-0.9,38.2-2.2,52.9c-1.7,14.6-2.9,25.6-3.6,33c-1.3,13.1-2.1,24-2.2,32.8c0,12.9-5.8,24.6-17.4,35.3
	c-6.3,6-11.7,9.2-16,9.8c10.5-9.2,17.2-23.2,20.2-42c4.1-25.4,7.4-66.3,9.8-122.6c0.4-10.6,0.7-28.2,0.8-52.6
	c0.2-23,0.7-40.7,1.4-53.2c0.7-10.3,0.2-25.5-1.7-45.6c-0.7-9-3.8-16.6-9.2-23c-4.5-4.7-11.2-9.1-20.2-13.4
	c-20.9-9.7-45.5-14-73.6-12.9c-26.3,1.1-43.8,2.3-52.4,3.6c-6.7,0.9-10.6-1-11.8-5.9c-0.9-2.6-0.1-5.2,2.5-7.8
	c2.8-2.6,5.8-3.4,9-2.5c7.3,2.1,18.5,2.5,33.6,1.4c14.9-0.9,26.1-0.5,33.6,1.4C400.6,93.7,405,93.8,409.6,93L409.6,93z M458.1,138.7
	c9.9,7.8,16,16,18.2,24.4c1.7,6-0.1,9.1-5.3,9.2c-4.5,0-7.3-1.6-8.4-4.8c-3-9-6.6-16.9-10.9-23.8c-1.1-1.3-0.9-2.8,0.6-4.5
	C454,137.2,456,137,458.1,138.7L458.1,138.7z M332.3,66.7c-10.1,0.2-17.6,0.2-22.7,0c-4.1,0-6.3-1.2-6.7-3.6c-0.2-3.5,2-5.3,6.4-5.3
	H334v1.4l21-1.4c5.2,0,7.7,2.2,7.3,6.7c-0.2,1.7-1.1,3.1-2.8,4.2c-1.3,0.9-2.8,1.2-4.5,0.8C349,67.6,341.5,66.7,332.3,66.7
	L332.3,66.7z M273.8,106.5c-3.9,4.9-5.9,8.5-5.9,10.9c-0.2,2.6,1.8,6,5.9,10.1c2.2,2.6,5.4,6.5,9.5,11.8c4.1,4.1,8.9,6.6,14.3,7.6
	c3,0.6,4.7,2.5,5,5.9c0.6,3.2-0.6,6.1-3.4,8.7c-1.7,1.7-4,3.5-7,5.6c-4.1,2.6-6.6,4.3-7.6,5c-13.4,12.1-23.6,25-30.5,38.6
	c-3,6.2-6.2,9.3-9.5,9.5c-3,0.4-6.7-2.2-11.2-7.6c-2.2-2.6-7.7-7.2-16.5-13.7c-3.2-2.1-6.9-3-11.2-2.8c-4.1,0-7.1,1-9,3.1
	c-4.1,5.4-2.7,11.8,4.2,19c0.9,0.9,2.5,2.4,4.8,4.5c2.8,3.2,4,6.4,3.6,9.5c-0.6,3.4-2.6,6.1-6.2,8.1c-11,6.2-22.2,14.2-33.6,24.1
	c-6.5,5.2-11.3,4.7-14.3-1.7c-0.6-1.1-1.7-2.1-3.4-2.8c-2.1-0.9-3.2-1.5-3.4-1.7c-18.1-13.4-31.7-23.9-40.9-31.4
	c-14.4-12.5-26.2-25-35.6-37.5c-2.2-3-4.8-7.8-7.6-14.6c-2.6-6.9-5-11.8-7.3-14.8c-0.4-0.4-0.6-1.3-0.6-2.8c0-1.3,0.2-2.4,0.6-3.4
	c2.1-3.4,4.7-9,7.8-16.8c3.5-6.5,7.8-11.3,12.9-14.3c3.7-2.1,9.7-7.7,17.9-16.8c12.7-13.8,28.2-27.8,46.5-42
	c4.1-3.2,9.9-8.3,17.4-15.4c1.3-1.5,3.4-4.4,6.2-8.7c2.4-3.6,4.9-4.7,7.6-3.4c2.2,1.1,5.9,2.7,10.9,4.8c4.1,2.1,7.1,4.8,9,8.1
	c1.5,2.1,4,4.9,7.6,8.7c5,6,10,9.8,14.8,11.5c5.6,1.7,12,0.8,19.3-2.5c7.1-3.4,15-3.7,23.8-1.1c8,2.6,14.4,7,19,13.2
	c2.6,4.3,3.8,8.4,3.6,12.3c0.6,3-0.1,5.9-2,8.7C276.9,103,274.9,105.2,273.8,106.5L273.8,106.5z M320.3,126.9
	c-1.9,8.6-2.5,18.2-2,28.8c0.2,4.5,1,14,2.5,28.6c0.4,3.7,2.3,6,5.9,6.7l17.9,2.2c10.5,2.4,17.3,7.9,20.4,16.5
	c3.2,8.8,1.6,17.2-4.8,25.2c-14.6,17.9-31.4,24.3-50.4,19c-5.2-1.3-8.1,0.7-8.7,6.2c-1.1,12.3-1.4,22.8-0.8,31.4
	c0.6,8.8,4.4,11.8,11.5,9c4.3-1.3,10.9-2,19.9-2c8.6,0,15.1-0.8,19.6-2.5c3.4-1.1,6.1-0.3,8.1,2.5c2.2,3,3.1,6.8,2.5,11.5
	c-1.1,8.8-1.5,17.5-1.1,26.3c0.2,6,1.6,10,4.2,12c2.2,2.1,6.4,3,12.6,2.8c6.9,0,12.9-2.3,17.9-7c6.3-5.4,6.3-10.9-0.3-16.5
	c-2.4-1.9-4-3.3-4.8-4.2c-1.3-1.7-1.4-3.8-0.3-6.4c1.5-3.4,5.2-4.9,11.2-4.5c9.1,0.7,19.5,0.2,31.1-1.7c2.8-0.6,12.9-2.5,30.2-5.9
	c3.7-0.6,6-0.8,6.7-0.8c2.2,0,4.2,0.9,5.9,2.8c2.1,2.6,2.2,5.8,0.6,9.5c-1.3,3.6-4.9,5.1-10.9,4.8c-11.8-1.1-20.6-1.7-26.6-1.7
	c-7.1,0.2-16.1,2.4-26.9,6.7c0.7,10.6-1.8,19.1-7.6,25.5c-5.6,6.5-13.5,10-23.8,10.4h-3.1c-11.8,0.2-19.9-2.2-24.4-7.3
	c-4.7-5-6.3-13.4-5-24.9c0-1.5,0.6-3.8,1.7-7c0.7-2.8,0.4-5.2-1.1-7.3c-3.7-3.9-9.4-5.6-17.1-5l-33,2.5c3.7,31.2,7.1,56.5,10.1,75.9
	c1.1,6.7-0.7,11.3-5.3,13.7c-4.5,2.6-8.6,1.3-12.3-3.9c-2.8-4.5-6.7-6.9-11.8-7.3h-13.4c-3.5,0-5.8,2.1-6.7,6.2
	c-2.6,10.8-1.4,19.2,3.6,25.2c5,5.6,12.8,7.4,23.2,5.3c3-0.6,7.5-2.3,13.4-5.3c6-2.1,9.4-1.4,10.4,2c0.7,4.7,2.5,7,5.3,7
	c2.1,0.2,5.3-1.3,9.8-4.5c-0.9,3.5-4.1,7.4-9.5,11.5c-4.7,3.5-7.2,7.4-7.6,11.5c3-0.4,7.3-2.4,12.9-6.2c5.2-3.6,9.7-5.5,13.4-5.9
	c-1.7,2.6-7.2,7.9-16.5,16c-7.5,6.3-11.8,13.2-12.9,20.4c7.1-3.9,18.1-10.9,33-21c13.3-9,23.9-15.4,31.9-19.3
	c-6.3,6.7-15.7,14.6-28,23.8c-14.9,11-25,18.9-30.2,23.8c11.9,3,22.1,1.6,30.5-4.2c6-3.7,24.8-15.2,56.6-34.4
	c5.4-3.2,10.1-4.3,14-3.4c-16.4,10.6-28.7,18.8-36.7,24.4c-4.1,2.2-7.1,3.9-9,5c-3.2,2.1-4.2,4.7-3.1,7.8c1.1,3,3.6,4.4,7.6,4.2
	c2.2-0.2,5.7-0.6,10.4-1.4c5,0.2,11-2.6,17.9-8.4c19.6-16.4,40.8-30,63.6-40.6c-5.6,6.2-14,13.2-25.2,21
	c-14.2,9.7-23.2,16.2-27.2,19.6c3.7,2.1,8.7,2.5,14.8,1.4c6.9-1.3,11.8-1.6,14.6-0.8c-1.1,4.7-5.6,8-13.4,10.1
	c-17.7,4.8-33.3,7.8-46.8,9c-28.7,2.4-54,3.5-75.9,3.1c-9.5-0.2-22.4-1-38.6-2.5c-18.3-2.1-31.1-3.4-38.4-3.9
	c-8.2-0.4-19-1.6-32.5-3.6c-16.8-2.6-27.7-4.1-32.8-4.5l-10.6-1.1c-4.3-0.9-7.3-2.8-9-5.6c-7.5-10.3-11.9-17.9-13.4-23
	c-2.8-8.8-4.2-18.8-4.2-30c0-3.5,0.6-13.6,1.7-30.2c0.2-3.4,0.1-9.3-0.3-17.9c-0.2-7.7,0.1-13.8,0.8-18.5c0.6-2.2-0.7-4.9-3.6-7.8
	c-3-2.4-3.8-4.8-2.5-7c0.9-1.5,2.3-3.6,4.2-6.4c1.7-2.4,2.3-4.9,2-7.6l-1.1-29.7c-0.6-7.1,0-11.4,1.7-12.9c1.5-1.7,5.6-2.6,12.3-2.8
	c14-0.6,25.5,0,34.4,1.7c6,0.9,10.4,0.6,13.2-0.8c2.8-1.3,5.4-4.6,7.8-9.8c8.2-18.1,22-24.5,41.4-19.3c5.6,1.5,8.6,4.9,9,10.4
	c0.4,8.6,0.5,15.1,0.3,19.6c0,5.8,0.5,9.1,1.4,10.1c0.9,1.1,4.3,1.9,10.1,2.2l6.4,0.8c12.1,0.9,19.2,0.3,21.3-2
	c2.2-2.1,3.5-9.2,3.9-21.3c0-0.8,0.5-4.5,1.4-11.2c0.6-4.7,0.6-8.6,0-11.8c-1.5-6.2,1.6-9.2,9.2-9.2c2.1,0,6.1,1.6,12,4.8
	c8.2,3.9,16.7,4,25.5,0.3c8.8-3.9,14.4-10.3,16.8-19c2.4-8-0.3-13.7-8.1-17.1c-9.9-4.5-18.9-5.6-27.2-3.4c-6,1.5-10.1,1.3-12.3-0.6
	c-2.1-1.9-2.3-5.7-0.8-11.5c1.9-7.5,3-17.6,3.4-30.2c0.2-14.8,0.7-24.8,1.7-30.2c0.9-4.5,0.4-9.9-1.7-16.2c-1.3-4.3,0.2-6.8,4.5-7.6
	c4.7-0.9,7.5,1,8.4,5.9C321.6,118.4,321.2,122.8,320.3,126.9L320.3,126.9z M276.6,147.9c-8-8-14.5-13-19.3-14.8
	c-5.6-2.2-8.7-5.4-9.2-9.5c-0.6-4.5,1.5-8.7,6.2-12.6c1.9-1.5,3.6-3.7,5.3-6.7l5-7.6c3-4.1,3.8-7.6,2.5-10.4c-0.7-2.6-3.5-4.9-8.4-7
	c-11.9-5-23.7-2.8-35.3,6.7c-8.4,6.5-14,5.7-16.8-2.5c-2.2-6-6.3-11.5-12-16.5c-7.5-5.2-12.9-9.3-16.2-12.3s-6.7-3.2-10.1-0.6
	c-21.8,17.4-36.1,29-42.8,35c-15.5,13.4-28.2,26.6-38.1,39.5c-3,3.9-4.4,7.4-4.2,10.4c3.4-2.1,8-5.4,14-10.1
	c5.2-3.5,10.2-5.9,14.8-7c-0.6,2.4-1.8,4.3-3.6,5.6c-2.2,1.7-3.8,2.9-4.8,3.6l-26.9,24.4c-3.2,2.8-3.8,5.7-2,8.7
	c1.5,2.4,4.3,2.4,8.4,0c12.3-7.8,19.3-12.3,21-13.4l25.8-13.7c0,2.4-0.7,4.4-2,5.9c-0.4,0.2-1.5,0.9-3.4,2.2l-38.4,25.5
	c-5.6,3.6-6.4,8-2.5,13.4c3.4,5,7.9,5.6,13.7,1.7c3.7-2.6,13.3-8.9,28.8-18.8c2.6-1.7,4.1-2.5,4.5-2.5c1.9-0.8,3.9-0.5,6.2,0.8
	l-33.6,24.9c-3,2.4-4.5,4.7-4.5,6.7c0.2,1.5,1.9,3.5,5,6.2c2.1,1.5,4.1,2.2,6.2,2c1.3-0.2,3.2-1.1,5.6-2.8
	c9.7-6.2,24.1-15.4,43.1-27.7c5.2-3.2,7.9-4.8,8.1-4.8c3.7-1.9,7.6-2.7,11.5-2.5c-14.7,10.3-25.6,17.8-32.5,22.7
	c-12.3,9-22.1,16.9-29.4,23.8c5.2,6.2,8.6,9.3,10.1,9.5c1.7,0.4,6-1.7,12.9-6.2c9.9-5.6,24.3-14.7,43.1-27.4
	c11.8-7.1,20.3-10.2,25.8-9.2c3.9,0.6,7.9,0.2,12-1.1c2.6-0.7,6.4-2.1,11.5-4.2c-3.7,6-5.5,9.9-5.3,11.8c0.2,1.9,2.6,4.9,7.3,9.2
	c4.7,4.5,7.9,6.7,9.8,6.7c2.1,0,4.7-2.4,7.8-7.3c7.8-11.2,16.3-21.3,25.5-30.2C282.7,159.5,282.6,153.7,276.6,147.9L276.6,147.9z
	 M462.5,191.3c0.9-0.9,2-1.3,3.1-1.1c2.6,0.6,3.9,2.2,3.9,5c0.4,6.3,0.5,11.1,0.3,14.3c-0.2,2.1-1,8-2.5,17.9
	c-0.9,7.5-1.1,13.4-0.6,17.9c0.2,2.8-1,5.1-3.6,7c-2.1,1.3-4.1,1.6-6.2,0.8c-2.1-0.6-3.4-2.1-3.9-4.5l0.6-10.1
	c-0.2-4.9,1.1-12.2,3.9-22.1c2.6-9.7,3.8-17.2,3.6-22.4C461.1,193,461.6,192.1,462.5,191.3L462.5,191.3z M522.7,205.9
	c-0.9,5.4-1.1,12.5-0.6,21.3c0.4,11.8,0.6,18.8,0.6,21.3c0.7,18.1,1.5,31.6,2.2,40.6c0.4,6.5-2.1,10.3-7.3,11.2
	c-2.2,0.4-4.1-0.6-5.6-2.8c-1.3-2.6-1.8-5.7-1.4-9.2c3-23.7,2.8-49.4-0.6-77c-0.6-2.1-0.6-4.2,0-6.4c0.2-3,2.6-4.7,7.3-5
	C521.5,199.7,523.3,201.8,522.7,205.9L522.7,205.9z M519.4,168.4c-0.4,4.1-2.7,5.7-7,4.8c-3-0.2-4.5-2.1-4.5-5.6l1.1-13.2h-0.3
	v-11.5c0-4.3,1.9-6.4,5.6-6.4c4.5,0,6.7,1.9,6.7,5.6C521.1,145.2,520.5,154,519.4,168.4L519.4,168.4z M503.1,454.2
	c-2.8,3.4-5.2,8.2-7.3,14.6c-8.4,20.9-25.7,34.5-51.8,40.9l-3.9,0.3c-1.9,0.4-3-0.5-3.4-2.5c-0.6-1.5-0.4-3,0.6-4.5
	c1.9-2.8,5.3-4.4,10.4-4.8c12.9-1.7,24.2-9.6,33.9-23.8l14-24.1c1.5-2.1,2.5-3.2,3.1-3.4c1.5-1.1,3-1,4.5,0.3
	C505.6,449.1,505.6,451.4,503.1,454.2L503.1,454.2z M274.7,302.5c-1.7,0.4-7.7,0.4-18.2,0c-7.3,0-13.3,0.8-17.9,2.2
	c-5.2,1.9-8.7,1.3-10.4-1.7c-2.4-5.8-2.4-10,0-12.6c2.1-1.9,3.4-4.5,3.9-7.8c0.4-1.9,0.7-4.8,1.1-9c0.9-9.7-3.3-13.6-12.6-11.8
	c-11.2,2.2-17.3,9.7-18.2,22.4c-0.2,5.6-1.3,9.3-3.4,11.2c-2.1,1.5-5.5,1.3-10.4-0.6c-8.2-3.4-15-5-20.4-5
	c-16.4-0.2-25-0.1-25.8,0.3c-3.2,1.9-4.2,10.9-3.1,27.2c-0.2,2.4-0.2,4,0,4.8c0.2,1.9,1.3,3.3,3.4,4.2c2.6-0.6,8-2.8,16.2-6.7
	c6.7-3.6,12.6-5.5,17.6-5.9c-3.2,3.4-7.3,6.5-12.3,9.5c-6,3.2-10.4,5.6-13.2,7.3c-7.5,4.7-11.5,8.1-12,10.4
	c-0.7,2.4,0.4,8.3,3.4,17.6c12.1-7.5,19.4-11.8,21.8-12.9c8-4.1,15.6-7,22.7-8.7c-4.5,4.1-9.7,8-15.7,11.8l-27.7,17.6
	c-4.9,3-6.2,6.9-3.9,11.8c1.1,2.1,2.7,2.7,4.8,2c1.3-0.2,3.1-1,5.3-2.5l41.4-19.6c-5.2,5.8-12.5,11.6-21.8,17.4
	c-10.8,6.2-18.8,10.8-23.8,14c-4.5,2.8-7.1,5.2-7.8,7.3c-0.7,2.1-0.1,6.1,2,12c5.2-3,15-9.4,29.4-19.3c12.1-8.2,22.3-14.2,30.5-17.9
	c0.4,2.1-0.7,3.9-3.1,5.6l-46.5,34.4c-6.2,4.7-9.6,7.3-10.4,7.8c-4.5,4.8-4.1,11,1.1,18.5c1.9,3,3.9,3.6,6.2,2
	c1.3-0.7,3.2-2.3,5.6-4.8c4.9-3.4,14.6-10.6,29.1-21.6c12.3-9,22.3-15.7,30-20.2c0.9-0.6,2.4-1.7,4.5-3.4c1.9-0.9,3.9-0.8,6.2,0.6
	l-72.2,55.4c-4.1,3.2-4.2,7.5-0.3,12.9c1.5,2.2,3.1,3.3,4.8,3.1c1.3-0.4,3.3-1.4,5.9-3.1c3.2-2.6,7.6-5.6,13.2-9
	c2.8-1.7,7.2-4.4,13.2-8.1l23-14c-4.7,6.3-11.8,13.1-21.3,20.2c-12.9,9.5-20.7,15.7-23.5,18.5c25.9,9.3,47.8,6.4,65.5-8.7
	c3-2.6,8-5.9,15.1-9.8c3.7-2.2,5.9-3.4,6.4-3.6c2.8-1.3,5.7-1.9,8.7-1.7c-4.7,4.5-11.6,9.9-20.7,16.2c-10.3,7.1-17.5,12.4-21.6,16
	c11.6,3.6,19.6,4.2,24.1,2c5-3,11.6-6.3,19.6-9.8c4.3-2.1,10.9-5,19.9-9c0.7-0.2,2.1-0.8,3.9-2c1.9-0.6,3.5,0.2,5,2.2
	c-2.1,1.7-7.3,4.8-15.7,9.5c-6.9,3.7-12.3,7.6-16.2,11.5l34.4,3.9c0.9-3.2,1.3-6.7,1.1-10.6c-0.4-2.4-0.7-5.7-1.1-9.8
	c0-1.5,0.4-5,1.1-10.6c0.6-4.3,0.6-7.8,0-10.6c-11.9-1.1-19.3-2-22.1-2.5c-11.6-1.5-19.9-7.3-24.9-17.4c-5.2-10.1-5.2-20.4,0-31.1
	c2.6-5.6,5.5-9.1,8.7-10.4c3.2-1.7,7.7-1.7,13.7,0c3.2,0.7,8,2.1,14.6,4.2c4.1,0.9,6.8,0.6,8.1-0.8c1.5-1.1,2.2-4.1,2.2-9l-0.8-4.8
	c-3.2-12.9-4.5-23.6-3.9-32.2c0.2-3.5-1.5-8.7-5-15.4c-3-6.2-3.8-11.4-2.5-15.7C282.9,303.2,280.3,301.9,274.7,302.5L274.7,302.5z
	 M289.5,518.9c0.6-4.1,3-5.9,7.3-5.3c11.6,2.4,25.8,2.8,42.6,1.1c9.3-0.8,23.4-2.2,42.3-4.2c4.7-0.2,12.1-2,22.4-5.3
	c5.4-1.5,8.3,0.1,8.7,4.8c0.6,4.1-1.9,6.3-7.3,6.7c-2.1,0.4-16.3,1.8-42.8,4.2c-17.2,1.9-31.7,2.4-43.7,1.7l-21.3,1.4
	C291.8,524.5,289.1,522.8,289.5,518.9L289.5,518.9z M21,164.4c1.3-9.7,4.9-18.9,10.6-27.4c2.2-3.4,4.5-4.3,6.7-2.8
	c2.8,1.3,2.8,3.6,0,6.7c-7.7,11.9-7.3,26,1.1,42.3c3.7,7.1,10.5,13.3,20.2,18.5c2.6,1.3,4.2,2.2,4.8,2.5c1.5,1.3,1.5,3.1,0,5.3
	c-3.5,4.7-7.4,5.2-11.5,1.7c-8.4-6-14-10.4-16.8-13.4C29.4,190.7,24.3,179.6,21,164.4L21,164.4z M90.1,248.7
	c-4.9-1.5-10-5.2-15.4-11.2c-1.9-2.1-1.1-4.3,2.2-6.7c3.7-2.1,6.6-1.4,8.7,2c0.9,1.1,3.1,2.8,6.4,5c3.4,2.1,5.3,4.1,5.9,6.2
	C96.1,248.6,93.5,250.2,90.1,248.7L90.1,248.7z M135.2,229.9c6,5,9.9,7.7,11.8,8.1c1.9,0.4,5.2-0.9,10.1-3.9c3.2-1.9,7.7-5,13.7-9.5
	c10.3-5,14.7-14.6,13.2-28.6c-11.6,7.5-20.1,13-25.5,16.5C148.9,218.9,141.2,224.7,135.2,229.9L135.2,229.9z M188.7,221.3
	c-4.3,1.9-8.9,4.7-13.7,8.4c-5.4,4.1-9.3,6.9-11.8,8.4c-4.7,3.4-6.9,5.7-6.7,7c0,1.3,2.6,4.4,7.8,9.2c0.2-0.2,5-4.7,14.6-13.4
	C185.3,235.5,188.5,228.9,188.7,221.3L188.7,221.3z"/>
</svg>
