<?xml version="1.0" encoding="utf-8"?>
<!-- Generator: Adobe Illustrator 26.0.1, SVG Export Plug-In . SVG Version: 6.00 Build 0)  -->
<svg version="1.1" id="Layer_1" xmlns="http://www.w3.org/2000/svg" xmlns:xlink="http://www.w3.org/1999/xlink" x="0px" y="0px"
	 viewBox="0 0 556.6 490.8" style="enable-background:new 0 0 556.6 490.8;" xml:space="preserve">
<style type="text/css">
	.st0{fill-rule:evenodd;clip-rule:evenodd;}
</style>
<path class="st0" d="M483.6,22c4.9,0,7.3,1.5,7.3,4.5c0,3.9-2.4,5.4-7.3,4.5c-13.1-2.4-34.6-3.3-64.7-2.5c-4.7,0-7-1.3-7-3.9
	c0.2-3.7,2.5-5.6,7-5.6c19.4,2.1,32.4,3.1,38.9,3.1L483.6,22L483.6,22z M488.7,67.4c-19.6-3-42.6-5.2-68.9-6.7
	c-2.1-0.4-25-1.7-68.9-3.9c-38.8-1.7-75.2-2.5-109.2-2.5c-10.5,0-24.2,0.7-41.2,2.2c-21.3,1.9-34.9,2.9-40.9,3.1
	c-34,2.2-59.4,4.8-76.2,7.8c-2.1,0.4-5.9,0.1-11.5-0.8c-5-0.6-9.1-0.2-12,1.1c-8.6,3.4-14.3,8.7-17.1,16c-3.4,8.6-5,19.5-5,32.8
	c4.3-2.1,8.4-5.2,12.3-9.5c4.1-5,7.3-8.7,9.5-10.9l8.7-9.5c1.5-1.7,2.9-1.6,4.2,0.3c1.3,1.9,1.4,3.4,0.3,4.5
	c-9.5,10.3-15.6,16.4-18.2,18.5c-13.1,10.3-18.7,24.5-16.8,42.8c0.4,5.4,0.5,12.3,0.3,20.7c-0.2,14-0.3,21.6-0.3,22.7
	c6-4.3,13.3-11.7,21.8-22.1c8.4-10.4,15.4-17.5,21-21.3c0.9,3.7,0.5,7-1.4,9.8c-0.4,0.8-2.2,2.7-5.6,5.9
	c-4.9,4.3-13.7,13.9-26.6,28.8c-4.5,5-6.6,10.9-6.4,17.6c0,0.4-0.1,5.7-0.3,16c-0.4,6.7,0.3,12.4,2,17.1c6.5-5.8,14.6-15,24.1-27.7
	c9.7-13.2,17.5-22.5,23.2-27.7c2.1,2.2,2.7,4.1,2,5.6c-0.4,0.9-1.3,2.2-2.8,3.9c-14.7,18.1-25.3,30.4-31.6,37
	c-13.6,14.4-18.3,31.7-14,52.1c4.1-3.9,9.2-9.2,15.4-16c7.1-8,11.9-13.4,14.3-16c0.6-0.6,4.8-6,12.6-16.2c5-6.4,9.9-11.1,14.6-14.3
	c0.6,3.7-1.7,8.3-6.7,13.7C72,267.3,59,282.6,54.1,288c-9.7,11.4-12.7,22.7-9,33.9c7.7,3.2,14.4,0.8,20.2-7.3
	c5.8-7.3,17.5-20.7,35.3-40.3c2.4-3,5.3-3.6,8.7-2c-3.2,4.8-10,12.5-20.4,23c-9,9.3-15,17.3-18.2,23.8c1.3,1.9,3,3,5,3.4h4.8
	c5.4,0.9,9.6,1.4,12.6,1.4c4.7,0.2,8.2-1.2,10.6-4.2c4.9-5.6,8.4-10,10.6-13.2c3.9-5.4,6-11.1,6.2-17.1c2.1-18.9,3.1-32.9,3.1-42
	c0-4.9,2-6.8,5.9-5.9c1.5,0.2,2.5,0.9,3.1,2.2c0.2,0.9,0.3,2.3,0.3,4.2c0.2,3.2-0.3,7.8-1.4,13.7c-1.3,6-1.9,10.5-1.7,13.4l0,19.9
	c0,4.7,2.4,7,7.3,7c4.9,0.6,8-1.7,9.5-6.7c2.6-11.6,3.3-24.5,2-38.9c-0.4-4.5-2.3-7.3-5.9-8.4c-2.6-0.9-4-1.5-4.2-1.7
	c-1.7-0.9-2.4-2.4-2.2-4.5c9-0.9,14.5-0.6,16.5,1.1c1.7,1.5,2.9,6.4,3.6,14.8c1.3,14.8,0.3,29.3-3.1,43.7c-1.1,4.7-2.7,7.7-4.8,9.2
	c-1.9,1.3-5,1.7-9.5,1.1l-8.1-1.7c-9.7-2.1-15.9,2-18.5,12c7.8,0.9,23.6,1.1,47.3,0.6c2.2-0.2,4.7-1.4,7.3-3.6c2.6-3,4.7-4.7,6.2-5
	c1.3,6.3,5,9.7,11.2,10.1l14.8,1.1c5.2,2.4,10.5,2.3,15.7-0.3c3-1.5,7.2-4.7,12.6-9.5c2.1,1.9,2.2,4.1,0.6,6.7
	c-1.9,2.4-2.1,4.6-0.8,6.4c6.5-0.2,11.6-0.3,15.1-0.3c6.7,0,12.3,0.2,16.8,0.6c5.2,0.6,10.5-1.5,15.7-6.2
	c6.5-5.8,11.1-9.2,13.7-10.1c0.6,2.4-0.4,5-2.8,7.8c-2.8,2.6-3.9,5.2-3.4,7.8c5.2-0.8,9.1-1.2,11.8-1.4c4.9-0.6,9-0.6,12.3,0
	c4.3,0.6,8.3-0.6,12-3.4c3.7-3.9,6.5-6.8,8.4-8.7c2.1,2.1,2.4,4.2,1.1,6.4c-1.5,2.6-1.9,4.6-1.1,5.9c20.7,2.2,49.7,3.3,86.8,3.1
	c41.1-0.2,70.2,0.3,87.4,1.4c-5.2,3-11.7,4.6-19.3,4.8c-4.3,0-10.7-0.1-19.3-0.3c-9,0.2-22.5,0-40.6-0.6c-2.1,0-8.5,0.5-19.3,1.4
	c-8,0.7-14.7,0.6-19.9-0.3c-5.2-0.9-11.9-1.5-19.9-1.7h-20.4l0.3,0.6c-1.9-1.9-6-2.6-12.3-2.2c-2.1,0.2-5.1,0.8-9.2,2
	c-3.5,0.7-6.3,0.6-8.1-0.3c-5-2.4-9.2-2.5-12.6-0.3c-1.1,0.6-3.7,3.5-7.8,8.7c-1.9,2.4-4.8,5.6-8.7,9.5c-0.6,0.6-4.9,5.2-13.2,14
	c-5.2,6-9,11.3-11.2,16c11,2.6,20.9,0.3,29.7-7c5.4-4.7,9.5-8.1,12.3-10.4c4.9-3.4,9.5-5.6,14-6.7c-0.7,2.4-2.2,4.7-4.5,6.7
	c-0.2,0.4-2.6,2.2-7.3,5.3l-11.8,8.4l-1.4,3.4c8.4,3.4,16.5,3.7,24.4,1.1c6.3-2.1,13.3-6.2,21-12.6c3.4-2.8,3.4-5.3,0-7.6
	c-2.8-1.9-3.7-4.4-2.8-7.6c5.4-2.1,12-1.2,19.9,2.5c-2.6,1.5-5.6,5.4-9,11.8c-2.8,5.2-6.5,8.1-11.2,8.7l2,3.9c5-0.2,15.6,0,31.6,0.6
	c12.9,0.4,23.4,0,31.6-1.1c6.7-0.9,17.5-1.6,32.2-2c14.2-0.6,25-1.4,32.5-2.5l16-2.8c14.9-1.7,23.7-11.3,26.3-28.8
	c7.1-50.4,11.9-91.2,14.3-122.4c0.4-7.3,0.6-18.3,0.6-33c0-14.8,0.2-25.9,0.6-33.3c0.4-6.4-0.4-13.8-2.2-22.4
	c-0.2-1.5-2-8.9-5.3-22.1c-1.7-3.6-2.7-6.1-3.1-7.6c-0.9-3.2,0.2-5.3,3.4-6.4c3.7-1.3,6.3-0.6,7.8,2.2c0.6,1.9,1.2,4.8,2,9
	c4.7,13.8,7.5,31.8,8.4,54c0.7,24.3-0.3,51.4-3.1,81.5c-4.3,45.7-8.9,81.7-13.7,107.8c-3,15.3-12.1,24.8-27.4,28.6
	c-9.5,2.4-19.1,4.1-28.8,5c-40.9,4.1-93.4,5.4-157.6,3.9c-11.9-0.2-18.9,0.7-21,2.8c-2.1,1.9-3.3,8.6-3.6,20.2l-0.6,6.4
	c-0.2,6,0.4,9.5,1.7,10.6c1.3,1.1,5.1,1.8,11.5,2c4.9-0.2,8.6-0.2,11.2,0c2.1-0.2,3.5-0.5,4.2-0.8c1.9-0.2,3.5,0.7,4.8,2.8
	c-4.5,3-10.9,4.5-19.3,4.5h-49c-6.2,0.2-9.3,0.4-9.5,0.6c-3.5,0.6-6.3,2.1-8.1,4.8c1.1,3.2,3.2,4.8,6.2,4.8
	c16.1,0,28.2-0.1,36.4-0.3c14.2-0.4,26.2-2.1,36.1-5c4.3-1.1,6.7,0,7.3,3.4c0.9,3.7-0.5,6.3-4.2,7.8c-0.9,0.2-3.6,0.3-8.1,0.3
	c-28.7,0.6-48.7,1.6-59.9,3.1c-1.5,0.2-5.4,0.3-11.8,0.3c-6.9-0.4-11.3-3.6-13.2-9.8c-1.1-3.4-0.7-6.2,1.4-8.7
	c1.1-1.7,3.4-3.6,6.7-5.6c5-3.4,11.3-4.7,18.8-3.9c6.3,0.6,10.1-3,11.2-10.6c-0.2-3.4-0.3-6-0.3-7.8c0.2-9.5-0.7-15.4-2.5-17.6
	c-1.7-2.6-7.2-4.7-16.5-6.2c-1.5-0.4-3.6-0.6-6.4-0.6c-20.5,0-51-0.9-91.3-2.8l-77.3-3.9c-8.8-0.4-14.1-4.3-16-11.8
	c-0.2-0.9-0.6-1.6-1.1-2c0-0.9-0.1-1.9-0.3-2.8c-0.4-2.8-1.1-5-2.2-6.7c0-0.7-0.3-1.3-0.8-1.7c0.2-0.8,0.3-1.5,0.3-2.2v-21
	c-0.6-40.9-0.8-61.4-0.8-61.6c0-4.1-0.7-11.6-2.2-22.4c-0.6-7.1-0.7-13-0.6-17.6c0.4-1.7,0.4-3.7,0-6.2v-0.3
	c-0.9-4.3-1-8.7-0.3-13.2c0.4-2.4,0.1-4.6-0.8-6.4c0.4-0.6,0.6-1.1,0.6-1.7c0.2-6.2-0.1-13.2-0.8-21c-0.4-4.1-0.6-10.9-0.6-20.4
	c0.2-8.6-0.2-15.3-1.1-20.2c-0.9-4.9-1-11.4-0.3-19.6c0.9-9.7,1.2-16.3,0.8-19.9c-0.2-7.5,2.1-16.3,6.7-26.6
	c3.5-9,10.3-14.5,20.2-16.5c6-1.3,13.5-2.2,22.7-2.8c12.7-0.8,20.2-1.3,22.4-1.7c16.1-2.1,36.8-3.6,62.2-4.8
	c34.7-1.7,55.6-2.8,62.7-3.4c23.9-2.1,48.7-2.5,74.5-1.4c59.2,2.4,95,3.9,107.5,4.5c11.6,0.6,26.7,1.9,45.4,3.9
	c23.3,2.4,38.4,3.8,45.1,4.2c8.4,0.7,14.7,4.2,18.8,10.4c4.1,6.2,4.7,13.1,1.7,20.7c-1.3,2.4-3,3.6-5,3.4c-2.2-0.2-3.4-1.7-3.4-4.5
	c-0.2-8.4-1.8-13.8-4.8-16.2C503.2,70.2,497.6,68.7,488.7,67.4L488.7,67.4z M359.9,29c-2.1,0-3.2-0.9-3.4-2.8
	c-0.6-2.1-0.1-3.5,1.4-4.2c2.4-1.5,6.5-1.6,12.3-0.3c6,1.1,10.5,3.1,13.4,5.9c-3.4,1.1-7.4,1.7-12,1.7C369,29.3,365.1,29.2,359.9,29
	L359.9,29z M377.2,165.1c0.2,6.5-0.1,16.1-0.8,28.6c-0.4,12.9-0.6,22.2-0.6,28c0,7.1-0.1,17.6-0.3,31.6c-0.4,12.3,0.2,22.9,1.7,31.6
	c0.9,5.8,3,9.3,6.2,10.6c4.3,1.9,7.7,2,10.1,0.3c2.8-1.7,4.3-5,4.5-10.1c0.4-27.6-0.2-52.5-1.7-74.8c-1.1-17.9-1.5-29.9-1.1-35.8
	c0.6-5.6,0-9.7-1.7-12.3c-1.5-3.4-5-5.5-10.6-6.4c-2.6-0.4-3.8-2.1-3.6-5c3-1.1,6.6-1.2,10.9-0.3c4.7,1.3,8.3,2.1,10.9,2.2
	c2.6,0.6,3.7,3.9,3.4,10.1c-1.1,12.9-1.2,32.3-0.3,58.2c0,3.9,0.6,15.8,1.7,35.6c0.7,14.6,0.4,26.4-1.1,35.6
	c-1.1,7.3-2.2,11.4-3.4,12.3c-1.1,1.1-5.2,1.5-12.3,1.1l-9.8-0.8c-6.3-0.2-9.9-3.4-10.6-9.8c-0.2-1.5-0.3-3.7-0.3-6.7
	c-0.2-22-0.3-38.5-0.3-49.3c0.2-19.6,1.1-36.2,2.8-49.8c0.9-7.7,0.1-15.7-2.5-24.1c-0.9-3.6,0.1-5.7,3.1-6.4
	C374.7,158.5,376.7,160.4,377.2,165.1L377.2,165.1z M305.3,185c0-3.5,1.5-5.3,4.5-5.3c3.7,0,5.3,1.8,4.8,5.3
	c-1.5,11.6-1.7,27.3-0.6,47c1.3,23,1.8,38.6,1.4,47v9.8c0,7.6,3.4,11.4,10.1,11.2c7.1,0,10.6-3.6,10.6-10.9v-34.4
	c0-24.3-0.8-44.2-2.5-59.9c-0.6-6-1.6-10.1-3.1-12.3c-2.2-3.9-6.4-6.4-12.6-7.3c10.3-2.8,16.5-3.4,18.8-2c2.2,1.1,3.5,5.8,3.9,14
	c2.6,71.3,3.9,107.4,3.9,108.4c0.2,6.4-0.5,10.4-2,12c-1.3,1.3-5,2.1-11.2,2.2c-5.4,0-10.4-0.5-14.8-1.4
	c-7.1-0.9-10.5-5.3-10.4-13.2c1.3-31.5,1-67.8-0.8-108.9L305.3,185z M491.2,134.6c3.2,14,4.4,26.4,3.6,37.2
	c-0.4,12.1-0.6,20-0.6,23.5c0.2,8.8,1.3,16.4,3.4,23c1.3,4.1,0.1,6.6-3.6,7.6c-3.7,1.7-5.8-0.1-6.2-5.3c-1.1-8.8-2-15.3-2.5-19.6
	c-0.6-7.3-0.6-13.7,0-19.3c2.1-19.2,0.3-37.9-5.3-56c-0.7-2.1-1.1-3.6-1.1-4.8c0-2.1,0.8-4.1,2.5-6.2c3.4,2.2,5.8,5.4,7.3,9.5
	C489.2,125.5,490.1,129,491.2,134.6L491.2,134.6z M493.2,243.8c0.6,1.5,0.9,3.7,1.1,6.7c0.7,5.6-1.2,11-5.9,16.2
	c-2.1-2.6-3.2-5.6-3.4-9c0.2-3.4,0.3-6,0.3-7.8c-0.9-2.6-1.4-4.7-1.4-6.2c0-2.4,1.5-3.6,4.5-3.6C491,240.1,492.6,241.3,493.2,243.8
	L493.2,243.8z M439.1,361.4c2.4-0.6,4.2-0.9,5.3-1.1c3,0,4.5,1.2,4.5,3.6c0,2.2-1.3,3.6-3.9,4.2c-8.4,1.5-15.1,0.4-20.2-3.4
	c-3.2-2.6-4.7-5.5-4.5-8.7c0.6-3.4,2.6-5.5,6.2-6.4c5-1.3,13-2.2,23.8-2.5c1.1-0.4,2.1-0.1,3.1,0.8c0.9,0.9,1.4,2,1.4,3.1
	c0,1.9-1.6,3-4.8,3.4c-7.5,0-12.9,1.1-16.2,3.4C435.3,360.1,437.1,361.4,439.1,361.4L439.1,361.4z M280.1,297c0.4,6-2.6,9.8-9,11.5
	c-6,1.9-13,1.8-21-0.3c-5.2-1.5-8.1-5-8.7-10.6v-8.1c1.1-10.1,1.8-24.1,2-42c0-20,0.4-34.1,1.1-42.3l0.3-3.1c0-3,1.2-4.5,3.6-4.5
	c1.7,0,3,0.6,3.9,1.7c0.6,0.9,0.7,2.2,0.6,3.9c-1.1,4.5-1.8,10.1-2,16.8c0,3.9-0.1,9.6-0.3,17.1c-0.6,10.3-0.8,25.5-0.8,45.6
	c0,5.4,1.1,10.1,3.4,14c1.5,2.2,3.5,3.5,6.2,3.6c3.2-0.2,5.6-0.4,7.3-0.6c4.1,0,6.2-2.6,6.2-7.8c0-4.7,0.7-12.6,2.2-23.8
	c1.3-10.1,1.9-18,1.7-23.8c0.2-4.7,0.1-12-0.3-22.1c-0.4-6.4-1.4-11-3.1-14c-2.1-4.1-6-6.6-11.8-7.6c-0.9-0.2-1.8-0.8-2.5-1.7
	c-0.7-1.1-0.7-2.2,0-3.4s2.2-1.7,4.5-1.7c11.4,0.2,17.9,6.5,19.6,19c1.5,9.5,1.9,20.3,1.1,32.2c-0.2,4.9-1.1,15.7-2.8,32.5
	L280.1,297z M316.2,358.3c7.1-10.3,15.4-17.5,24.9-21.8c-4.9,6.5-8.3,10.8-10.4,12.9C326.5,353.6,321.6,356.6,316.2,358.3
	L316.2,358.3z M387.3,355.5c2.2,0,3.8,0.1,4.8,0.3c1.9,0.2,2.7,1.3,2.5,3.4c-0.2,1.9-1.1,2.9-2.8,3.1c-1.1,0.2-2.7,0.2-4.8,0
	c-1.1,0.2-2.2,0.2-3.4,0l-3.1,0.3h-5.9c-2.1-0.4-2.9-1.7-2.5-3.9c0.2-2.1,1.3-3.4,3.4-3.9c2.4,0.4,4.2,0.4,5.3,0L387.3,355.5z
	 M378.9,415.4c-3,4.7-7.3,5.7-12.9,3.1c-0.6-0.4-0.9-1.1-1.1-2.2c0-1.3,0.1-2.1,0.3-2.2c2.2-2.2,4.7-3.1,7.3-2.5
	C375.1,413.3,377.2,414.7,378.9,415.4L378.9,415.4z M481.7,407.8c0.2,3-1.5,4.7-5,5c-5.2,0.6-13,1.5-23.2,2.8
	c-9.3,1.1-17.2,1.6-23.5,1.4h-17.6c-3.4,0-4.9-1.6-4.8-4.8c0.2-3.2,2.1-4.5,5.9-3.9c6.5,1.7,14.2,2.2,23,1.7
	c2.2-0.2,10-0.9,23.2-2.2l16-2.8c2.1-0.2,3.3-0.3,3.6-0.3C480.7,404.9,481.5,406,481.7,407.8L481.7,407.8z M170.6,88.1
	c13.4-0.4,30-3.4,49.6-9c4.7-1.1,7.7,0.3,9,4.2c-1.1,1.9-2.8,3.1-5,3.6l-27.7,4.8c-11,2.1-20.2,4.2-27.4,6.4c-3.2,1.3-5.2,0-6.2-3.9
	c-0.2-1.9,0.9-3.5,3.4-4.8C168,88.5,169.5,88.1,170.6,88.1L170.6,88.1z M82.1,113.6c-3,5.8-9.3,14.1-19,24.9
	c-10.3,11-17.5,17.4-21.8,19c7.3-11.2,12.9-19.5,16.8-24.9C65.3,123.3,73.4,116.9,82.1,113.6z M184.9,221.1h6.4v-4.5
	c0.2-1.7,1.9-2.2,5-1.4c11.6,3.7,18.4,7.1,20.4,10.1c2.1,2.6,3.4,10.4,3.9,23.2c0.4,9.9-0.7,26.7-3.1,50.4c-0.6,5.4-1.5,8.6-2.8,9.5
	c-1.1,0.9-4.7,1.2-10.6,0.8c-7.7-0.6-12.5-1.1-14.6-1.7c-8.4-2.8-11.8-7.6-10.1-14.3c1.7-6.7,2-15.1,0.8-25.2
	c-1.1-14.4-1.7-22.8-1.7-25.2c0-0.2,0.7-5.4,2-15.7C181.4,223.9,182.8,221.8,184.9,221.1L184.9,221.1z M188.5,238.7
	c-1.5,7.1-1.8,16-0.8,26.6c1.1,16.1,1.7,24.9,1.7,26.6c0,4.8,3.5,7.3,10.6,7.3c3.5-0.2,5.8-0.5,6.7-0.8c2.2-0.9,3.5-3,3.6-6.2
	c1.1-12.7,2-22.3,2.5-28.8c0.6-11.2,0-20.9-1.7-29.1c-0.9-4.9-3-7.6-6.2-8.1c-1.1-0.2-3.3-1-6.4-2.5c-2.6-1.7-4.9-2.4-7-2.2
	L188.5,238.7z M195.8,331.7c-4.9,0.4-9.2,2.5-13.2,6.4c-4.9,4.5-12.7,10.3-23.5,17.4c-11.6,9-19.2,15.7-23,20.2
	c11.6,2.4,18.9,3.3,22.1,2.5c3.2-0.6,8.7-4.3,16.5-11.2c6.7-5.2,11.6-9.4,14.6-12.6c1.3-1.5,4.9-4.6,10.9-9.2
	c5-3.7,8.8-7.3,11.2-10.6C205.1,332.4,199.9,331.5,195.8,331.7L195.8,331.7z M175.6,336.7c1.7-1.5,2.7-3.6,3.1-6.2
	c-7.7-2.1-13.2-0.9-16.5,3.4c-3.5,4.3-6.1,3.7-7.6-1.7c-0.6-1.5-1.8-2.2-3.6-2.2c-6.2,0.4-15.4,0.1-27.7-0.8
	c-10.6,0.6-19,4.6-25.2,12c-2.4,3-5.8,6.3-10.1,10.1c-2.6,2.2-6.3,5.4-11.2,9.5c-4.1,3.7-6.4,5.9-7,6.4c-2.1,2.8-2.1,5.3-0.3,7.6
	c1.9,2.2,4.6,2.9,8.1,2c1.9-0.4,5.1-1.6,9.8-3.6l2.5-2c3.2-3.4,9.4-8.5,18.8-15.4c8.4-6.2,14.4-11.6,17.9-16.2c3.4-4.1,8-4.7,14-1.7
	c-4.1,3.5-11.6,9.3-22.4,17.4c-9.5,7.3-16.8,13.3-21.8,18.2c9.5,2.6,17.5,3.4,24.1,2.5c7.8-1.3,14.6-5.2,20.2-11.8
	c3.4-3.7,8.2-8,14.6-12.9c7.1-4.8,12.3-8.7,15.7-11.5C173.9,337.8,175.5,336.7,175.6,336.7L175.6,336.7z M180.7,367
	c-4.9,4.1-7,8.4-6.4,12.9c12.3,0.7,20.2,1,23.5,0.8c8.4-1.1,15.7-4.7,21.8-10.6c10.6-10.3,19.7-16.3,27.2-18.2
	c0.7-2.1,2.9-4.5,6.4-7.3c3.7-2.4,5.5-5.2,5.3-8.4c-3-0.7-8.2-1.1-15.7-1.1c-6.7,0-11.9-0.6-15.4-1.7c-1.5-0.7-3.7,0.2-6.7,2.8
	L180.7,367z M234.2,364.2c-7.8,6.5-12.9,11.7-15.1,15.4l25.2,3.9c3.4,0.4,6.2-0.8,8.4-3.6L291,337c-9.7-4.3-18.1-3.2-25.2,3.4
	c-4.9,4.9-7.7,7.5-8.4,7.8c-3.2,2.4-6.4,3.7-9.8,3.9c-0.6,3.2-2.3,5.6-5.3,7.3C240.6,360.7,237.9,362.3,234.2,364.2L234.2,364.2z
	 M94.7,329.7c-9.1-0.6-17.9,2.2-26.3,8.4c-4.7,3.4-11.5,9.1-20.4,17.1c-1.3,1.1-1.3,3.7,0,7.8c1.7,3.7,3.5,6.3,5.6,7.8
	c2.1,0.8,3.8,0.6,5.3-0.6c1.9-1.5,3.3-2.7,4.2-3.6l23.5-22.1c3-2.2,4.9-4.2,5.6-5.9C94.1,336.3,94.9,333.3,94.7,329.7L94.7,329.7z
	 M60,338.4c2.1-1.5,3.3-3.2,3.6-5c-9.1-2.1-14.7-2.2-16.8-0.6c-1.9,1.5-2.1,6.6-0.6,15.4c2.1-0.4,5.1-2.3,9.2-5.9
	C57.6,340.6,59.1,339.3,60,338.4L60,338.4z M153,402c9-0.4,15.9-0.2,20.7,0.6h10.1c4.5,0,8,0.8,10.6,2.5c-2.2,3.2-4.9,4.8-7.8,4.8
	l-55.2,0.3c-2.4,0-4-0.1-4.8-0.3c-1.7-0.6-2.4-1.9-2.2-3.9c0.2-3.7,2.8-5.1,7.8-4.2C136.7,402.6,143.6,402.7,153,402L153,402z
	 M94.4,402.5c3-0.4,4.8,0.9,5.3,3.9c-0.4,2.4-1.6,3.6-3.6,3.6c-3.7,0.6-5.6-0.6-5.6-3.6C90.2,404.2,91.5,402.9,94.4,402.5
	L94.4,402.5z M257.7,411.5c-0.6,7.1,0.9,13.7,4.5,19.9c2.8-8.2,4.4-14.8,4.8-19.9c0.4-6.5-1-12.6-4.2-18.2
	C259.9,401.7,258.2,407.8,257.7,411.5z"/>
</svg>
