<?xml version="1.0" encoding="UTF-8"?>
<svg width="700pt" height="700pt" version="1.1" viewBox="0 0 700 700" xmlns="http://www.w3.org/2000/svg" xmlns:xlink="http://www.w3.org/1999/xlink">
 <defs>
  <symbol id="w" overflow="visible">
   <path d="m18.766-1.125c-0.96875 0.5-1.9805 0.875-3.0312 1.125-1.043 0.25781-2.1367 0.39062-3.2812 0.39062-3.3984 0-6.0898-0.94531-8.0781-2.8438-1.9922-1.9062-2.9844-4.4844-2.9844-7.7344 0-3.2578 0.99219-5.8359 2.9844-7.7344 1.9883-1.9062 4.6797-2.8594 8.0781-2.8594 1.1445 0 2.2383 0.13281 3.2812 0.39062 1.0508 0.25 2.0625 0.625 3.0312 1.125v4.2188c-0.98047-0.65625-1.9453-1.1406-2.8906-1.4531-0.94922-0.3125-1.9492-0.46875-3-0.46875-1.875 0-3.3516 0.60547-4.4219 1.8125-1.0742 1.1992-1.6094 2.8555-1.6094 4.9688 0 2.1055 0.53516 3.7617 1.6094 4.9688 1.0703 1.1992 2.5469 1.7969 4.4219 1.7969 1.0508 0 2.0508-0.14844 3-0.45312 0.94531-0.3125 1.9102-0.80078 2.8906-1.4688z"/>
  </symbol>
  <symbol id="c" overflow="visible">
   <path d="m13.734-11.141c-0.4375-0.19531-0.87109-0.34375-1.2969-0.4375-0.41797-0.10156-0.83984-0.15625-1.2656-0.15625-1.2617 0-2.2305 0.40625-2.9062 1.2188-0.67969 0.80469-1.0156 1.9531-1.0156 3.4531v7.0625h-4.8906v-15.312h4.8906v2.5156c0.625-1 1.3438-1.7266 2.1562-2.1875 0.82031-0.46875 1.8008-0.70312 2.9375-0.70312 0.16406 0 0.34375 0.011719 0.53125 0.03125 0.19531 0.011719 0.47656 0.039062 0.84375 0.078125z"/>
  </symbol>
  <symbol id="a" overflow="visible">
   <path d="m17.641-7.7031v1.4062h-11.453c0.125 1.1484 0.53906 2.0078 1.25 2.5781 0.70703 0.57422 1.7031 0.85938 2.9844 0.85938 1.0312 0 2.082-0.14844 3.1562-0.45312 1.082-0.3125 2.1914-0.77344 3.3281-1.3906v3.7656c-1.1562 0.4375-2.3125 0.76562-3.4688 0.98438-1.1562 0.22656-2.3125 0.34375-3.4688 0.34375-2.7734 0-4.9297-0.70312-6.4688-2.1094-1.5312-1.4062-2.2969-3.3789-2.2969-5.9219 0-2.5 0.75391-4.4609 2.2656-5.8906 1.5078-1.4375 3.582-2.1562 6.2188-2.1562 2.4062 0 4.332 0.73047 5.7812 2.1875 1.4453 1.4492 2.1719 3.3828 2.1719 5.7969zm-5.0312-1.625c0-0.92578-0.27344-1.6719-0.8125-2.2344-0.54297-0.57031-1.25-0.85938-2.125-0.85938-0.94922 0-1.7188 0.26562-2.3125 0.79688s-0.96484 1.2969-1.1094 2.2969z"/>
  </symbol>
  <symbol id="f" overflow="visible">
   <path d="m9.2188-6.8906c-1.0234 0-1.793 0.17188-2.3125 0.51562-0.51172 0.34375-0.76562 0.85547-0.76562 1.5312 0 0.625 0.20703 1.1172 0.625 1.4688 0.41406 0.34375 0.98828 0.51562 1.7188 0.51562 0.92578 0 1.7031-0.32812 2.3281-0.98438 0.63281-0.66406 0.95312-1.4922 0.95312-2.4844v-0.5625zm7.4688-1.8438v8.7344h-4.9219v-2.2656c-0.65625 0.92969-1.3984 1.6055-2.2188 2.0312-0.82422 0.41406-1.8242 0.625-3 0.625-1.5859 0-2.8711-0.45703-3.8594-1.375-0.99219-0.92578-1.4844-2.1289-1.4844-3.6094 0-1.7891 0.61328-3.1016 1.8438-3.9375 1.2383-0.84375 3.1797-1.2656 5.8281-1.2656h2.8906v-0.39062c0-0.76953-0.30859-1.332-0.92188-1.6875-0.61719-0.36328-1.5703-0.54688-2.8594-0.54688-1.0547 0-2.0312 0.10547-2.9375 0.3125-0.89844 0.21094-1.7305 0.52344-2.5 0.9375v-3.7344c1.0391-0.25 2.0859-0.44141 3.1406-0.57812 1.0625-0.13281 2.125-0.20312 3.1875-0.20312 2.7578 0 4.75 0.54688 5.9688 1.6406 1.2266 1.0859 1.8438 2.8555 1.8438 5.3125z"/>
  </symbol>
  <symbol id="b" overflow="visible">
   <path d="m7.7031-19.656v4.3438h5.0469v3.5h-5.0469v6.5c0 0.71094 0.14062 1.1875 0.42188 1.4375s0.83594 0.375 1.6719 0.375h2.5156v3.5h-4.1875c-1.9375 0-3.3125-0.39844-4.125-1.2031-0.80469-0.8125-1.2031-2.1797-1.2031-4.1094v-6.5h-2.4219v-3.5h2.4219v-4.3438z"/>
  </symbol>
  <symbol id="m" overflow="visible">
   <path d="m12.766-13.078v-8.2031h4.9219v21.281h-4.9219v-2.2188c-0.66797 0.90625-1.4062 1.5703-2.2188 1.9844s-1.7578 0.625-2.8281 0.625c-1.8867 0-3.4336-0.75-4.6406-2.25-1.2109-1.5-1.8125-3.4258-1.8125-5.7812 0-2.3633 0.60156-4.2969 1.8125-5.7969 1.207-1.5 2.7539-2.25 4.6406-2.25 1.0625 0 2 0.21484 2.8125 0.64062 0.82031 0.42969 1.5664 1.0859 2.2344 1.9688zm-3.2188 9.9219c1.0391 0 1.8359-0.37891 2.3906-1.1406 0.55078-0.76953 0.82812-1.8828 0.82812-3.3438 0-1.457-0.27734-2.5664-0.82812-3.3281-0.55469-0.76953-1.3516-1.1562-2.3906-1.1562-1.043 0-1.8398 0.38672-2.3906 1.1562-0.55469 0.76172-0.82812 1.8711-0.82812 3.3281 0 1.4609 0.27344 2.5742 0.82812 3.3438 0.55078 0.76172 1.3477 1.1406 2.3906 1.1406z"/>
  </symbol>
  <symbol id="l" overflow="visible">
   <path d="m10.5-3.1562c1.0508 0 1.8516-0.37891 2.4062-1.1406 0.55078-0.76953 0.82812-1.8828 0.82812-3.3438 0-1.457-0.27734-2.5664-0.82812-3.3281-0.55469-0.76953-1.3555-1.1562-2.4062-1.1562-1.0547 0-1.8594 0.38672-2.4219 1.1562-0.55469 0.77344-0.82812 1.8828-0.82812 3.3281 0 1.4492 0.27344 2.5586 0.82812 3.3281 0.5625 0.77344 1.3672 1.1562 2.4219 1.1562zm-3.25-9.9219c0.67578-0.88281 1.4219-1.5391 2.2344-1.9688 0.82031-0.42578 1.7656-0.64062 2.8281-0.64062 1.8945 0 3.4453 0.75 4.6562 2.25 1.207 1.5 1.8125 3.4336 1.8125 5.7969 0 2.3555-0.60547 4.2812-1.8125 5.7812-1.2109 1.5-2.7617 2.25-4.6562 2.25-1.0625 0-2.0078-0.21094-2.8281-0.625-0.8125-0.42578-1.5586-1.0859-2.2344-1.9844v2.2188h-4.8906v-21.281h4.8906z"/>
  </symbol>
  <symbol id="k" overflow="visible">
   <path d="m0.34375-15.312h4.8906l4.125 10.391 3.5-10.391h4.8906l-6.4375 16.766c-0.64844 1.6953-1.4023 2.8828-2.2656 3.5625-0.86719 0.6875-2 1.0312-3.4062 1.0312h-2.8438v-3.2188h1.5312c0.83203 0 1.4375-0.13672 1.8125-0.40625 0.38281-0.26172 0.67969-0.73047 0.89062-1.4062l0.14062-0.42188z"/>
  </symbol>
  <symbol id="j" overflow="visible">
   <path d="m16.781-19.766v4.3125c-1.125-0.5-2.2266-0.875-3.2969-1.125-1.0625-0.25781-2.0703-0.39062-3.0156-0.39062-1.25 0-2.1797 0.17969-2.7812 0.53125-0.60547 0.34375-0.90625 0.88281-0.90625 1.6094 0 0.54297 0.20312 0.96875 0.60938 1.2812 0.40625 0.30469 1.1406 0.5625 2.2031 0.78125l2.25 0.45312c2.2695 0.44922 3.8789 1.1406 4.8281 2.0781 0.95703 0.92969 1.4375 2.2461 1.4375 3.9531 0 2.25-0.66797 3.9297-2 5.0312-1.3359 1.0938-3.3711 1.6406-6.1094 1.6406-1.3047 0-2.6055-0.125-3.9062-0.375-1.3047-0.23828-2.6055-0.59766-3.9062-1.0781v-4.4531c1.3008 0.69922 2.5625 1.2266 3.7812 1.5781 1.2188 0.34375 2.3906 0.51562 3.5156 0.51562 1.1562 0 2.0352-0.1875 2.6406-0.5625 0.61328-0.38281 0.92188-0.9375 0.92188-1.6562 0-0.63281-0.21094-1.125-0.625-1.4688-0.41797-0.34375-1.2461-0.65625-2.4844-0.9375l-2.0312-0.4375c-2.043-0.4375-3.5391-1.1328-4.4844-2.0938-0.9375-0.95703-1.4062-2.25-1.4062-3.875 0-2.0312 0.65625-3.5938 1.9688-4.6875s3.1953-1.6406 5.6562-1.6406c1.125 0 2.2734 0.085938 3.4531 0.25 1.1875 0.16797 2.4141 0.42188 3.6875 0.76562z"/>
  </symbol>
  <symbol id="i" overflow="visible">
   <path d="m12.422-21.281v3.2188h-2.7031c-0.6875 0-1.1719 0.125-1.4531 0.375-0.27344 0.25-0.40625 0.6875-0.40625 1.3125v1.0625h4.1875v3.5h-4.1875v11.812h-4.8906v-11.812h-2.4375v-3.5h2.4375v-1.0625c0-1.6641 0.46094-2.8984 1.3906-3.7031 0.92578-0.80078 2.3672-1.2031 4.3281-1.2031z"/>
  </symbol>
  <symbol id="e" overflow="visible">
   <path d="m2.1875-5.9688v-9.3438h4.9219v1.5312c0 0.83594-0.007813 1.875-0.015625 3.125-0.011719 1.25-0.015625 2.0859-0.015625 2.5 0 1.2422 0.03125 2.1328 0.09375 2.6719 0.070313 0.54297 0.17969 0.93359 0.32812 1.1719 0.20703 0.32422 0.47266 0.57422 0.79688 0.75 0.32031 0.16797 0.69141 0.25 1.1094 0.25 1.0195 0 1.8203-0.39062 2.4062-1.1719 0.58203-0.78125 0.875-1.8672 0.875-3.2656v-7.5625h4.8906v15.312h-4.8906v-2.2188c-0.74219 0.89844-1.5234 1.5586-2.3438 1.9844-0.82422 0.41406-1.7344 0.625-2.7344 0.625-1.7617 0-3.1055-0.53906-4.0312-1.625-0.92969-1.082-1.3906-2.6602-1.3906-4.7344z"/>
  </symbol>
  <symbol id="h" overflow="visible">
   <path d="m2.3594-21.281h4.8906v21.281h-4.8906z"/>
  </symbol>
  <symbol id="v" overflow="visible">
   <path d="m2.5781-20.406h6.6875l4.6562 10.922 4.6719-10.922h6.6875v20.406h-4.9844v-14.938l-4.7031 11.016h-3.3281l-4.7031-11.016v14.938h-4.9844z"/>
  </symbol>
  <symbol id="u" overflow="visible">
   <path d="m14.312-14.828v3.7188c-1.043-0.4375-2.0547-0.76562-3.0312-0.98438-0.98047-0.21875-1.9023-0.32812-2.7656-0.32812-0.92969 0-1.6211 0.11719-2.0781 0.34375-0.44922 0.23047-0.67188 0.58984-0.67188 1.0781 0 0.38672 0.17188 0.68359 0.51562 0.89062 0.34375 0.21094 0.95703 0.36719 1.8438 0.46875l0.85938 0.125c2.5078 0.32422 4.1953 0.85156 5.0625 1.5781 0.86328 0.73047 1.2969 1.8711 1.2969 3.4219 0 1.6367-0.60547 2.8672-1.8125 3.6875-1.1992 0.8125-2.9922 1.2188-5.375 1.2188-1.0234 0-2.0742-0.078125-3.1562-0.23438-1.0742-0.15625-2.1797-0.39453-3.3125-0.71875v-3.7188c0.96875 0.48047 1.9609 0.83984 2.9844 1.0781 1.0312 0.23047 2.0781 0.34375 3.1406 0.34375 0.95703 0 1.6758-0.12891 2.1562-0.39062 0.47656-0.26953 0.71875-0.66406 0.71875-1.1875 0-0.4375-0.16797-0.75781-0.5-0.96875-0.33594-0.21875-0.99609-0.38281-1.9844-0.5l-0.85938-0.10938c-2.1797-0.26953-3.7031-0.77344-4.5781-1.5156-0.875-0.73828-1.3125-1.8594-1.3125-3.3594 0-1.625 0.55078-2.8281 1.6562-3.6094 1.1133-0.78906 2.8203-1.1875 5.125-1.1875 0.89453 0 1.8359 0.074219 2.8281 0.21875 1 0.13672 2.082 0.35156 3.25 0.64062z"/>
  </symbol>
  <symbol id="t" overflow="visible">
   <path d="m2.3594-15.312h4.8906v15.312h-4.8906zm0-5.9688h4.8906v4h-4.8906z"/>
  </symbol>
  <symbol id="g" overflow="visible">
   <path d="m16.547-12.766c0.61328-0.94531 1.3477-1.6719 2.2031-2.1719 0.85156-0.5 1.7891-0.75 2.8125-0.75 1.7578 0 3.0977 0.54688 4.0156 1.6406 0.92578 1.0859 1.3906 2.6562 1.3906 4.7188v9.3281h-4.9219v-7.9844-0.35938c0.007813-0.13281 0.015625-0.32031 0.015625-0.5625 0-1.082-0.16406-1.8633-0.48438-2.3438-0.3125-0.48828-0.82422-0.73438-1.5312-0.73438-0.92969 0-1.6484 0.38672-2.1562 1.1562-0.51172 0.76172-0.77344 1.8672-0.78125 3.3125v7.5156h-4.9219v-7.9844c0-1.6953-0.14844-2.7852-0.4375-3.2656-0.29297-0.48828-0.8125-0.73438-1.5625-0.73438-0.9375 0-1.6641 0.38672-2.1719 1.1562-0.51172 0.76172-0.76562 1.8594-0.76562 3.2969v7.5312h-4.9219v-15.312h4.9219v2.2344c0.60156-0.86328 1.2891-1.5156 2.0625-1.9531 0.78125-0.4375 1.6406-0.65625 2.5781-0.65625 1.0625 0 2 0.25781 2.8125 0.76562 0.8125 0.51172 1.4258 1.2305 1.8438 2.1562z"/>
  </symbol>
  <symbol id="d" overflow="visible">
   <path d="m9.6406-12.188c-1.0859 0-1.9141 0.39062-2.4844 1.1719-0.57422 0.78125-0.85938 1.9062-0.85938 3.375s0.28516 2.5938 0.85938 3.375c0.57031 0.77344 1.3984 1.1562 2.4844 1.1562 1.0625 0 1.875-0.38281 2.4375-1.1562 0.57031-0.78125 0.85938-1.9062 0.85938-3.375s-0.28906-2.5938-0.85938-3.375c-0.5625-0.78125-1.375-1.1719-2.4375-1.1719zm0-3.5c2.6328 0 4.6914 0.71484 6.1719 2.1406 1.4766 1.418 2.2188 3.3867 2.2188 5.9062 0 2.5117-0.74219 4.4805-2.2188 5.9062-1.4805 1.418-3.5391 2.125-6.1719 2.125-2.6484 0-4.7148-0.70703-6.2031-2.125-1.4922-1.4258-2.2344-3.3945-2.2344-5.9062 0-2.5195 0.74219-4.4883 2.2344-5.9062 1.4883-1.4258 3.5547-2.1406 6.2031-2.1406z"/>
  </symbol>
  <symbol id="s" overflow="visible">
   <path d="m17.75-9.3281v9.3281h-4.9219v-7.1094c0-1.3438-0.03125-2.2656-0.09375-2.7656s-0.16797-0.86719-0.3125-1.1094c-0.1875-0.3125-0.44922-0.55469-0.78125-0.73438-0.32422-0.17578-0.69531-0.26562-1.1094-0.26562-1.0234 0-1.8242 0.39844-2.4062 1.1875-0.58594 0.78125-0.875 1.8711-0.875 3.2656v7.5312h-4.8906v-21.281h4.8906v8.2031c0.73828-0.88281 1.5195-1.5391 2.3438-1.9688 0.83203-0.42578 1.75-0.64062 2.75-0.64062 1.7695 0 3.1133 0.54688 4.0312 1.6406 0.91406 1.0859 1.375 2.6562 1.375 4.7188z"/>
  </symbol>
  <symbol id="r" overflow="visible">
   <path d="m2.5781-20.406h5.875l7.4219 14v-14h4.9844v20.406h-5.875l-7.4219-14v14h-4.9844z"/>
  </symbol>
  <symbol id="q" overflow="visible">
   <path d="m17.75-9.3281v9.3281h-4.9219v-7.1406c0-1.3203-0.03125-2.2344-0.09375-2.7344s-0.16797-0.86719-0.3125-1.1094c-0.1875-0.3125-0.44922-0.55469-0.78125-0.73438-0.32422-0.17578-0.69531-0.26562-1.1094-0.26562-1.0234 0-1.8242 0.39844-2.4062 1.1875-0.58594 0.78125-0.875 1.8711-0.875 3.2656v7.5312h-4.8906v-15.312h4.8906v2.2344c0.73828-0.88281 1.5195-1.5391 2.3438-1.9688 0.83203-0.42578 1.75-0.64062 2.75-0.64062 1.7695 0 3.1133 0.54688 4.0312 1.6406 0.91406 1.0859 1.375 2.6562 1.375 4.7188z"/>
  </symbol>
  <symbol id="p" overflow="visible">
   <path d="m2.5781-20.406h8.7344c2.5938 0 4.582 0.57812 5.9688 1.7344 1.3945 1.1484 2.0938 2.7891 2.0938 4.9219 0 2.1367-0.69922 3.7812-2.0938 4.9375-1.3867 1.1562-3.375 1.7344-5.9688 1.7344h-3.4844v7.0781h-5.25zm5.25 3.8125v5.7031h2.9219c1.0195 0 1.8047-0.25 2.3594-0.75 0.5625-0.5 0.84375-1.2031 0.84375-2.1094 0-0.91406-0.28125-1.6172-0.84375-2.1094-0.55469-0.48828-1.3398-0.73438-2.3594-0.73438z"/>
  </symbol>
  <symbol id="o" overflow="visible">
   <path d="m2.3594-15.312h4.8906v15.031c0 2.0508-0.49609 3.6172-1.4844 4.7031-0.98047 1.082-2.4062 1.625-4.2812 1.625h-2.4219v-3.2188h0.85938c0.92578 0 1.5625-0.21094 1.9062-0.625 0.35156-0.41797 0.53125-1.2461 0.53125-2.4844zm0-5.9688h4.8906v4h-4.8906z"/>
  </symbol>
  <symbol id="n" overflow="visible">
   <path d="m14.719-14.828v3.9844c-0.65625-0.45703-1.3242-0.79688-2-1.0156-0.66797-0.21875-1.3594-0.32812-2.0781-0.32812-1.3672 0-2.4336 0.40234-3.2031 1.2031-0.76172 0.79297-1.1406 1.9062-1.1406 3.3438 0 1.4297 0.37891 2.543 1.1406 3.3438 0.76953 0.79297 1.8359 1.1875 3.2031 1.1875 0.75781 0 1.4844-0.10938 2.1719-0.32812 0.6875-0.22656 1.3203-0.56641 1.9062-1.0156v4c-0.76172 0.28125-1.5391 0.48828-2.3281 0.625-0.78125 0.14453-1.5742 0.21875-2.375 0.21875-2.7617 0-4.9219-0.70703-6.4844-2.125-1.5547-1.4141-2.3281-3.3828-2.3281-5.9062 0-2.5312 0.77344-4.5039 2.3281-5.9219 1.5625-1.4141 3.7227-2.125 6.4844-2.125 0.80078 0 1.5938 0.074219 2.375 0.21875 0.78125 0.13672 1.5547 0.35156 2.3281 0.64062z"/>
  </symbol>
 </defs>
 <g>
  <path d="m540.73 29.688c13.629 2.8008 23.984 12.41 31.078 28.836l-2.5195 2.5195c-4.6641-3.9219-11.664-9.9844-21-18.199-7.2812-6.1602-15.496-8.7695-24.641-7.8398-1.3047 0.18359-7.4648 0.28516-18.48 0.28516-7.2812 0.18359-13.254 1.2109-17.922 3.0781-0.93359 0.55859-1.8633 0.55859-2.8008 0-1.3047-0.56641-1.9609-1.5859-1.9609-3.0781 0-2.0547 0.74609-3.3672 2.2383-3.9219 3.543-1.3047 7.2812-2.4297 11.199-3.3672h35.281c3.1758 0.375 6.3516 0.93359 9.5273 1.6875zm8.6797 39.754c-0.74609 0-3.457-0.18359-8.1211-0.55859-19.602-3.7344-41.254-5.5039-64.961-5.3203-16.426 0.18359-38.078 1.4961-64.961 3.9219-0.93359 0-4.6641 0.92969-11.199 2.8008-7.6562 2.6094-12.969 5.6953-15.961 9.2344-2.8008 3.7344-4.4805 9.6133-5.0391 17.641-0.37109 7.4648-1.3984 12.32-3.0781 14.559-1.8633 2.4297-6.0664 4.8555-12.602 7.2812-12.879 4.4844-25.664 6.7188-38.359 6.7188-12.32-0.37109-30.801 0.28125-55.441 1.9648-24.641 1.6797-43.215 2.4258-55.719 2.2344-13.625-0.37109-30.336 1.5859-50.121 5.8789-19.977 4.6719-31.359 15.586-34.16 32.766-0.74609 4.4805-1.7734 11.199-3.0781 20.16-1.3047 8.0312-1.3047 15.121 0 21.281 23.703-1.6797 54.32-2.5156 91.84-2.5156 79.895-0.75 120.02-1.1211 120.4-1.1211 8.2148-0.18359 20.719-0.93359 37.52-2.2383 16.801-1.1211 29.398-1.7695 37.801-1.9609 5.9766-0.18359 32.48 0 79.52 0.55859 1.4961 0 2.7031 0.75 3.6406 2.2383 0.93359 1.8633 0.28125 3.7305-1.9609 5.6016-3.168 2.4258-8.6797 3.168-16.52 2.2344-15.121-1.8633-29.773-2.5156-43.961-1.9609l-140 5.0391c-11.574 0.55859-29.398 0.46484-53.48-0.28516l-106.12 1.3984c-7.4648 0-11.105 3.6406-10.922 10.922v10.078c0 4.2969 0.46484 7.9336 1.3984 10.922 3.7344-0.93359 6.9062-3.0781 9.5195-6.4336 2.8008-4.3008 5.0391-7.4688 6.7188-9.5195 2.0547-3.1758 4.2969-3.9219 6.7188-2.2383 1.3047 0.93359 1.6797 2.1523 1.1211 3.6406-0.55859 0.92969-1.3984 1.9609-2.5195 3.0781-1.8633 2.8008-5.1367 6.5352-9.8008 11.199-7.2812 6.5352-11.945 12.695-14 18.48-1.4961 5.4141-1.5859 13.719-0.28125 24.922 2.2383 0.55859 4.2969-0.55859 6.1602-3.3594 2.0547-2.6133 3.9219-3.9219 5.6016-3.9219l0.011719-0.5625 0.28125 0.56641h-0.28125c1.1211 3.7305-0.28125 7-4.1992 9.8008-6.9062 5.2266-8.5898 12.969-5.0391 23.234 2.4297 0 5.1367-1.4961 8.1211-4.4805 2.8008-2.8008 5.2266-4.3867 7.2812-4.7617 0 0.92969-0.18359 2.3281-0.55859 4.1992-6.9062 5.2266-11.105 11.848-12.602 19.879-1.3047 5.7852-1.0312 13.629 0.83984 23.52 3.543-0.93359 7.5586-3.7344 12.039-8.3984 4.4805-5.4141 8.4961-8.6797 12.039-9.8008 0.93359 4.8477-1.3984 8.9609-7 12.32-16.055 11.199-20.344 26.312-12.879 45.359 7.0938-3.3594 14.559-9.5195 22.398-18.48 12.137-14 18.664-21.281 19.602-21.84 1.4961 2.8008 1.6797 5.3203 0.55859 7.5664-0.74609 1.3008-2.0547 2.9844-3.9219 5.0352-7.6562 9.7031-18.105 19.969-31.359 30.801-6.3438 4.8555-8.9609 11.664-7.8398 20.441l4.1992 22.398c4.8555-2.8008 10.457-7.375 16.801-13.719 7.8398-8.0312 13.066-13.066 15.68-15.121 4.4805-3.543 9.8008-8.4961 15.961-14.836 10.078-10.832 15.305-16.43 15.68-16.801 0.74609 3.7305 0.55859 6.7148-0.55859 8.9609-0.55859 0.55859-1.9609 2.2383-4.1992 5.0391-23.895 23.699-38.832 38.266-44.801 43.68-5.7852 5.2266-9.4297 10.078-10.922 14.559-2.2383 5.6016-1.9609 11.57 0.83984 17.922 0.375 0.55859 0.28125 2.5195-0.28125 5.8789-5.4141-1.1211-9.1445-4.0156-11.199-8.6797-0.18359-0.75-1.3984-5.1367-3.6406-13.16-0.74609-2.6133-1.2148-5.9766-1.3984-10.086-0.18359-5.9688-0.28125-9.4258-0.28125-10.359l-2.2383-9.8008c-0.37109-2.8008-1.1211-4.1055-2.2383-3.9219-0.375-1.6797-0.65625-3.0781-0.83984-4.1992l-0.003907-0.27344c0.18359-1.8633 0.28125-3.5508 0.28125-5.0391 1.3047-3.168 1.9609-6.7148 1.9609-10.633 0.18359-3.7344-0.46484-9.2383-1.9609-16.52-0.55859-3.7344-1.0234-9.0547-1.3984-15.961 0-7.6562-0.18359-12.977-0.55859-15.965 0.375-3.168 0.46484-5.4141 0.28125-6.7188 0-1.3047-0.55859-1.9609-1.6797-1.9609-0.55859-2.6133-1.2109-4.8555-1.9609-6.7188-0.19141-0.93359-0.375-1.6797-0.55859-2.2344 2.0547-5.4141 1.9609-12.137-0.28125-20.164-2.8008-9.5195-3.0781-23.52-0.83984-42 1.1211-9.5195 1.8633-21.281 2.2383-35.281 0.375-21.465 0.55859-33.32 0.55859-35.559 0.18359-10.641 1.3047-21.285 3.3594-31.922 4.8555-25.766 20.441-40.32 46.762-43.68 19.969-2.0547 40.039-3.832 60.199-5.3203 3.3594-0.18359 23.613-0.83984 60.762-1.9648 24.457-0.92969 44.703-2.8945 60.762-5.8789 6.7188-1.3047 11.664-3.168 14.84-5.6016 3.3594-2.9844 5.4102-7.4648 6.1602-13.434 2.2383-21.102 15.031-32.766 38.359-35 50.586-5.4141 92.68-5.7891 126.28-1.1211l18.199 4.1992c1.3047 0.37109 1.9609 1.7695 1.9609 4.1992-0.38281 2.0508-1.5039 3.0781-3.3672 3.0781zm16.801 17.078c5.7852 9.3359 8.2109 22.121 7.2812 38.367-0.18359 3.9141-0.18359 8.7695 0 14.559 0 2.9844 0.28125 7.6484 0.83984 14 1.1211 54.504 0.65625 99.398-1.3984 134.68-0.18359 4.2969 0 10.168 0.55859 17.641 0.74609 8.2148 1.1211 14.094 1.1211 17.633v124.89c0.18359 14.371-3.832 25.664-12.039 33.879-7.8398 8.0234-19.137 11.945-33.879 11.762-31.922-0.74609-49.84-1.2148-53.762-1.3984-6.9062-0.55859-15.305-0.55859-25.199 0-5.6016 0.18359-13.906 0.65625-24.922 1.3984-17.922 0.56641-38.176 0.65625-60.762 0.28125-1.1211 0-7.0938-0.28125-17.922-0.83594-7.2812-0.375-13.254-0.18359-17.922 0.55859-6.9062 1.1211-17.359 1.8633-31.359 2.2383-14 0.55859-24.359 1.3984-31.078 2.5195-8.2109 1.3008-18.57 1.7695-31.078 1.3984-17.359-0.19141-27.719-0.28516-31.078-0.28516-8.0312 0.56641-20.344 0.09375-36.961-1.3984-7.4648-0.55859-14-3.2656-19.602-8.1133-2.0547-1.8711-2.4297-4.0156-1.1211-6.4414 0.375-1.3047 1.2148-1.9609 2.5195-1.9609 1.1211 0 2.0547 0.37109 2.8008 1.1133 2.6133 2.0547 4.8555 2.6133 6.7188 1.6875 0.55859-0.19141 2.2383-1.8711 5.0391-5.0391l53.48-63c2.8008-3.168 5.7852-5.4141 8.9609-6.7188l2.8008 2.5195-51.238 59.641c-1.4961 1.4961-3.7344 3.9141-6.7188 7.2812-1.8633 3.3594-2.3359 5.9688-1.3984 7.8359 0.93359 2.0547 3.2656 3.1758 7 3.3672l70.84 1.1211c4.6641 0.18359 9.5195-2.1523 14.559-7 15.496-15.5 28.84-30.703 40.039-45.641 3.1758-4.1055 5.3203-6.6289 6.4414-7.5586 2.8008-2.8008 6.5352-4.6719 11.199-5.6016-20.719 27.434-38.078 48.809-52.078 64.113l42.84-2.8008c2.2383-0.37109 4.2969-1.3047 6.1602-2.8008 0.375-0.37109 1.8633-2.0508 4.4805-5.0352l32.48-34.441c2.8008-3.168 4.2969-4.8477 4.4805-5.0352 2.2383-1.6875 4.9453-2.1523 8.1211-1.3984-3.543 4.8477-10.078 12.227-19.602 22.113-8.7734 9.1523-15.121 16.895-19.039 23.238 22.023 0 34.441-0.09375 37.238-0.28125 2.6133-0.18359 5.2266-1.5859 7.8398-4.1992 2.6133-3.3672 4.5742-5.6953 5.8789-7 4.8555-5.6016 8.4961-9.8945 10.922-12.879 4.2969-4.6719 8.6797-8.0312 13.16-10.086-2.2383 5.2305-5.9766 10.832-11.199 16.801-3.1758 3.5508-7.9336 9.1523-14.281 16.801 8.5898 1.8711 14.934 2.5195 19.039 1.9648 6.3438-0.18359 12.039-2.6133 17.078-7.2812 7.6562-7.2852 16.801-14.566 27.441-21.84-1.3047 4.6641-4.5703 9.4297-9.8008 14.281l-12.602 12.32c11.574 3.7344 22.68 2.6133 33.32-3.3594 4.1055-2.6133 12.602-9.9023 25.48-21.84-0.18359 4.4805-2.4258 8.8633-6.7188 13.16-5.6016 5.9766-8.7734 9.7031-9.5195 11.199 5.4141 1.1211 9.2383 1.2148 11.48 0.28516 1.6797-0.75 6.6289-4.3008 14.84-10.641 2.4258-1.6797 6.2539-5.2305 11.48-10.641 5.0391-5.4141 9.6133-9.5156 13.719-12.312-1.6797 6.8984-5.5039 13.16-11.48 18.762-2.9844 3.3594-7.3711 7.8398-13.16 13.441 12.137 6.5312 22.773 5.8789 31.922-1.9648 8.5859-7.4648 15.023-12.969 19.32-16.52l4.4805-0.55859c0 2.0508-0.74609 4.0156-2.2383 5.8789-0.93359 1.1211-2.3359 2.7031-4.1992 4.7656-0.93359 1.1133-2.6133 2.6094-5.0391 4.4805-2.0547 1.6797-3.3594 3.4492-3.9219 5.3203 11.387 1.8633 20.441 0.09375 27.16-5.3203 6.9062-5.4141 10.359-13.535 10.359-24.367l-0.007812-114.53c0-3.5508-0.28125-17.922-0.83984-43.121-0.37109-17.367 0-31.734 1.1211-43.121 0.55859-3.168 0.375-8.2148-0.55859-15.121-0.37109-1.1211-0.09375-5.5039 0.83984-13.16 0.93359-5.0391 0-8.7734-2.8008-11.199-1.8633-1.6797-5.3203-2.1523-10.359-1.3984-6.1602 0.92969-10.266 1.2148-12.32 0.83594-1.4961-0.37109-4.8555-0.64844-10.078-0.83594-4.8555-0.18359-9.1445-0.83984-12.879-1.9648 5.4141-2.9844 11.297-4.6641 17.641-5.0352h15.398c7.4648 0 11.945-0.56641 13.441-1.6797 1.3047-1.3047 1.9609-5.4141 1.9609-12.32 0-15.68-0.46484-38.734-1.3984-69.164-0.18359-7.2812-2.1445-14.836-5.8789-22.68-2.0547-5.2305-6.0664-12.414-12.039-21.559 5.0391-0.18359 9.0547 0.55859 12.039 2.2344 2.793 1.3047 5.4961 4.0156 8.1133 8.1211zm-40.602 12.047c2.6094-0.56641 4.3867 0.37109 5.3203 2.8008 0.93359 2.2344 0.83984 9.7031-0.28125 22.398-0.93359 12.695-2.1445 20.719-3.6406 24.078-2.0547-0.55859-3.1758-1.7695-3.3594-3.6406-0.375-2.0508-0.55859-3.543-0.55859-4.4805-0.93359-4.6641-1.3984-10.832-1.3984-18.48v-18.199c0-2.4297 1.3047-3.9219 3.918-4.4766zm-126.84 150.92c-2.2383 6.8984-9.3359 24.633-21.281 53.199-7.2812 16.609-18.664 41.531-34.16 74.762-2.8008 6.7188-7 9.8008-12.602 9.2383-17.359 0.37109-22.398-7.1016-15.121-22.398 9.7031-19.977 22.211-48.719 37.52-86.238 1.8633-5.2305 6.7188-13.906 14.559-26.039 3.3594-5.2266 7.5586-8.3984 12.602-9.5156 3.7344-1.3047 8.7734-1.5 15.121-0.56641 3.5547 0.74609 4.6719 3.2578 3.3633 7.5586zm-12.316 0.28125c-0.93359-0.75-1.8633-0.83984-2.8008-0.28125-5.9766 2.0508-9.8008 5.2266-11.48 9.5156l-12.039 25.766c-2.2383 4.8477-5.9688 14.184-11.199 28-4.6641 11.762-8.7695 21-12.32 27.719-2.0547 3.7305-4.2969 8.4961-6.7188 14.281-1.1211 3.543-2.8945 8.6797-5.3203 15.398-0.93359 3.7305-0.09375 6.1602 2.5195 7.2812 2.8008 0.93359 5.3203 0 7.5586-2.8008l3.3594-5.6016c21.465-47.785 35.746-80.168 42.84-97.16 2.8008-8.3984 5.1367-14.75 7-19.039 0.003906-1.3086-0.46875-2.3398-1.3984-3.0781zm62.715 21.273-3.9219-0.55859c-4.4805-0.375-7.0938 1.3008-7.8398 5.0352-0.55859 2.6133 1.0234 4.7656 4.7617 6.4414l12.602 4.1992c17.359 3.9219 35.191 12.035 53.48 24.359 2.9844 1.8633 5.1367 3.2656 6.4414 4.1992 2.0547 1.8633 2.8945 4.1055 2.5195 6.7188-0.74609 3.9219-4.6641 6.7188-11.762 8.3984-4.4805 0.93359-10.176 3.168-17.078 6.7188-8.0234 3.7305-13.719 6.1602-17.078 7.2812-6.1602 1.8633-13.906 5.6953-23.238 11.48-10.832 6.5352-18.48 10.734-22.961 12.602-6.3438 2.8008-8.2148 6.9062-5.6016 12.32 1.1211 2.4297 2.9844 3.3594 5.6016 2.8008 2.8008-0.75 4.9453-1.3047 6.4414-1.6797 25.199-6.5352 54.977-20.906 89.32-43.121 2.0547-1.6797 5.4141-5.3203 10.078-10.922 3.9219-4.8477 5.6953-8.4961 5.3203-10.922-0.55859-2.4258-3.3594-5.5039-8.3984-9.2344l-7-4.4805-63.84-29.965c-1.3125-0.54688-3.9219-1.1094-7.8477-1.6719zm76.727-82.32c-2.9844-7.2812-2.9844-14.648 0-22.121 3.9219 4.8555 5.8789 8.5859 5.8789 11.199-0.003906 2.4336-1.9609 6.0742-5.8789 10.922zm-58.801 80.082c5.4141 2.8008 14.934 6.8164 28.559 12.039 12.504 4.8477 22.023 9.1445 28.559 12.879 5.9688 2.9844 10.359 5.4141 13.16 7.2812 11.762 6.7188 13.535 15.305 5.3203 25.766-5.4141 6.7188-13.719 14.281-24.922 22.68-11.199 8.7695-25.855 16.895-43.961 24.359-10.266 4.4844-25.762 10.734-46.48 18.766-6.5352 2.6133-10.641 3.3594-12.32 2.2344-1.6797-0.92969-3.457-5.2266-5.3203-12.879-1.6797-6.5352-2.1445-10.633-1.3984-12.32 0.74609-1.6797 4.1055-4.0156 10.078-7l40.32-21.281c15.863-8.2148 29.586-14.559 41.16-19.035 2.2383-0.93359 3.3594-2.5195 3.3594-4.7656-14.375-11.016-31.266-18.48-50.68-22.398-8.7695-1.8633-18.48-5.5039-29.121-10.922 5.4102-11.016 11.762-17.633 19.039-19.879 6.5391-2.2383 14.754-0.75 24.648 4.4766zm118.44 213.64c2.4297 0.55859 3.6406 2.9844 3.6406 7.2812-0.55859 10.266-5.4102 19.602-14.559 28-8.9609 8.7695-18.48 13.066-28.559 12.879-2.6133 0-4.8555-1.5859-6.7188-4.7617 1.4961-1.3047 2.4297-1.9609 2.8008-1.9609 19.602-2.2383 31.832-14.191 36.68-35.84 1.2969-4.1055 3.5391-5.9688 6.7148-5.5977zm-207.2 40.043 39.48-0.56641c3.7344 0 16.055 0.65625 36.961 1.9648 16.43 0.92969 29.961 0.92969 40.602 0 3.9219-0.56641 6.2539 0.37109 7 2.8008 0.55859 3.543-1.6797 5.3125-6.7188 5.3125-42-0.74609-63.281-1.1133-63.84-1.1133-5.6016-0.19141-13.906-0.75-24.922-1.6875-9.7031-0.55859-18.105-0.09375-25.199 1.3984-1.3047 0.375-2.3359 0.46875-3.0781 0.28516-2.9922 0-4.6641-1.0312-5.0391-3.0859-1.1289-3.5391 0.45703-5.3086 4.7539-5.3086zm-124.88-432.6 85.68-6.7188 3.0781-0.56641c3.7344 0.93359 5.5039 2.7031 5.3203 5.3203 0 2.0547-1.4961 3.3672-4.4805 3.9219-1.6797 0.18359-5.5039 0-11.48-0.55859-4.2969-0.375-7.9336-0.10156-10.922 0.83594-3.7344 0.37109-15.496 1.2148-35.281 2.5195-14 0.74609-25.57 2.2383-34.719 4.4805-3.1758 0.75-5.8789 0.65625-8.1211-0.28125-2.4258-1.4961-3.2656-3.3594-2.5195-5.6016 0.93359-2.4297 1.9609-3.6406 3.0781-3.6406zm-78.398 12.879c-0.93359-2.2383 0.18359-3.832 3.3594-4.7656 6.3438-2.2344 13.344-2.9844 21-2.2344 3.168-0.56641 5.4102-0.83984 6.7188-0.83984 2.8008-0.18359 4.3867 0.83984 4.7617 3.0781 0.18359 2.6133-1.1211 4.1992-3.9219 4.7656-1.4961 0.18359-3.7344 0.28125-6.7188 0.28125-7.0938 1.1211-14.281 1.8633-21.559 2.2383-0.9375 0.17969-2.1523-0.66016-3.6406-2.5234zm-21.559 80.074c39.199 0.93359 68.504 0.28125 87.922-1.9609 3.7344-0.375 8.1211-0.10156 13.16 0.83594 5.9766 1.6797 10.734 2.8008 14.281 3.3672-3.1758 3.9141-6.6289 5.6016-10.359 5.0352-15.121-0.93359-32.945-1.3047-53.48-1.1211-11.762 0-29.398 0.375-52.922 1.1211l-6.4414-0.28125c-2.2383-0.55859-3.3594-1.7695-3.3594-3.6406 0-2.0508 1.1211-3.0781 3.3594-3.0781 0.55859-0.18359 3.168-0.27734 7.8398-0.27734zm6.4375 78.125c-3.543 2.2344-7.7461 6.625-12.602 13.16-4.1055 5.4141-8.1211 8.7695-12.039 10.078 3.7344-8.3984 7.1836-14.094 10.359-17.078 2.9883-3.1758 7.7461-5.2305 14.281-6.1602zm115.92 5.6016-74.199 35.281c-3.543 1.6797-8.3984 4.6641-14.559 8.9609-6.1602 3.9219-6.8164 8.7734-1.9609 14.566 2.9844 4.1055 6.2539 7 9.8008 8.6797 10.266 5.2305 23.055 10.734 38.359 16.52 17.359 6.5312 30.426 11.48 39.199 14.836 5.4141 2.0547 9.0547 0.375 10.922-5.0352 1.1211-4.6719-1.1211-7.1836-6.7188-7.5664-8.0234-0.92969-18.387-3.7305-31.078-8.3984-14.746-5.4141-24.734-8.7695-29.961-10.078-1.6797-0.37109-4.1055-1.0312-7.2812-1.9609-2.6094-1.3047-4.0078-3.1758-4.1992-5.6016-0.37109-3.5508 2.1445-7.8398 7.5586-12.879 2.8008-2.2383 5.0391-3.7344 6.7188-4.4844 23.52-11.762 41.535-19.785 54.039-24.078 7.2812-2.2344 11.574-4.2969 12.879-6.1602 1.4961-1.6797 2.5195-6.1641 3.0781-13.441-3.1758-1.6875-7.375-1.4062-12.598 0.83984zm12.879-1.4023c3.9219 0.37109 6.3438 2.1445 7.2812 5.3203 0.55859 2.2344 1.0234 5.4102 1.3984 9.5156 0.93359 4.1055-1.5898 7.1836-7.5586 9.2383l-46.199 15.398c-11.574 4.4805-20.629 10.543-27.16 18.199 7.6562 4.6641 17.176 8.8633 28.559 12.602 12.879 3.7344 22.496 6.7188 28.84 8.9609 9.7031 3.1758 15.023 5.0391 15.961 5.6016 4.4805 2.6133 5.5039 6.3516 3.0781 11.199-3.9219 7.8398-8.1211 12.414-12.602 13.719-4.2969 1.6797-10.543 1.0312-18.762-1.9609-8.0234-3.1758-19.785-7.8398-35.281-14-13.625-5.4141-25.016-10.641-34.16-15.68-7.6562-4.3008-12.602-7.9336-14.84-10.922-9.1445-12.137-7.375-21.934 5.3203-29.398 8.5859-5.2305 21.184-11.297 37.801-18.199 18.297-8.0312 31.078-13.906 38.359-17.641 14.559-7.0938 25.574-12.504 33.039-16.234 2.6094 2.8008 2.9844 5.5 1.1211 8.1133-2.4258 3.5547-3.8242 5.6055-4.1953 6.168zm-142.8 35c3.543-1.8711 6.0664-3.3672 7.5586-4.4805-2.2383 8.0234-6.0664 12.227-11.48 12.602 0.003907-3.3633 1.3086-6.0703 3.9219-8.1211zm85.68 165.2c7.0938-6.7188 12.227-11.949 15.398-15.68 6.1602-7.6562 10.734-13.535 13.719-17.641 5.9766-6.7188 11.762-11.664 17.359-14.84-17.176 27.254-36.586 49.375-58.238 66.367 1.8672-6.1758 5.7891-12.238 11.762-18.207z" fill-rule="evenodd"/>
  <use x="70" y="644" xlink:href="#w"/>
  <use x="90.550781" y="644" xlink:href="#c"/>
  <use x="104.359375" y="644" xlink:href="#a"/>
  <use x="123.347656" y="644" xlink:href="#f"/>
  <use x="142.242188" y="644" xlink:href="#b"/>
  <use x="155.628906" y="644" xlink:href="#a"/>
  <use x="174.617188" y="644" xlink:href="#m"/>
  <use x="204.410156" y="644" xlink:href="#l"/>
  <use x="224.453125" y="644" xlink:href="#k"/>
  <use x="252.453125" y="644" xlink:href="#j"/>
  <use x="272.617188" y="644" xlink:href="#f"/>
  <use x="291.511719" y="644" xlink:href="#a"/>
  <use x="310.5" y="644" xlink:href="#i"/>
  <use x="322.683594" y="644" xlink:href="#e"/>
  <use x="342.617188" y="644" xlink:href="#h"/>
  <use x="361.960938" y="644" xlink:href="#v"/>
  <use x="389.828125" y="644" xlink:href="#e"/>
  <use x="409.757812" y="644" xlink:href="#u"/>
  <use x="426.425781" y="644" xlink:href="#h"/>
  <use x="436.023438" y="644" xlink:href="#t"/>
  <use x="445.621094" y="644" xlink:href="#g"/>
  <use x="70" y="672" xlink:href="#i"/>
  <use x="82.183594" y="672" xlink:href="#c"/>
  <use x="95.992188" y="672" xlink:href="#d"/>
  <use x="115.226562" y="672" xlink:href="#g"/>
  <use x="154.152344" y="672" xlink:href="#b"/>
  <use x="167.535156" y="672" xlink:href="#s"/>
  <use x="187.46875" y="672" xlink:href="#a"/>
  <use x="216.207031" y="672" xlink:href="#r"/>
  <use x="239.640625" y="672" xlink:href="#d"/>
  <use x="258.878906" y="672" xlink:href="#e"/>
  <use x="278.8125" y="672" xlink:href="#q"/>
  <use x="308.492188" y="672" xlink:href="#p"/>
  <use x="329.015625" y="672" xlink:href="#c"/>
  <use x="342.820312" y="672" xlink:href="#d"/>
  <use x="362.058594" y="672" xlink:href="#o"/>
  <use x="371.65625" y="672" xlink:href="#a"/>
  <use x="390.648438" y="672" xlink:href="#n"/>
  <use x="407.242188" y="672" xlink:href="#b"/>
 </g>
</svg>
